%TF.GenerationSoftware,KiCad,Pcbnew,10.0.0*%
%TF.CreationDate,2026-04-13T22:00:39+05:30*%
%TF.ProjectId,Udemy_philslab_stm32,5564656d-795f-4706-9869-6c736c61625f,rev?*%
%TF.SameCoordinates,Original*%
%TF.FileFunction,Copper,L1,Top*%
%TF.FilePolarity,Positive*%
%FSLAX46Y46*%
G04 Gerber Fmt 4.6, Leading zero omitted, Abs format (unit mm)*
G04 Created by KiCad (PCBNEW 10.0.0) date 2026-04-13 22:00:39*
%MOMM*%
%LPD*%
G01*
G04 APERTURE LIST*
G04 Aperture macros list*
%AMRoundRect*
0 Rectangle with rounded corners*
0 $1 Rounding radius*
0 $2 $3 $4 $5 $6 $7 $8 $9 X,Y pos of 4 corners*
0 Add a 4 corners polygon primitive as box body*
4,1,4,$2,$3,$4,$5,$6,$7,$8,$9,$2,$3,0*
0 Add four circle primitives for the rounded corners*
1,1,$1+$1,$2,$3*
1,1,$1+$1,$4,$5*
1,1,$1+$1,$6,$7*
1,1,$1+$1,$8,$9*
0 Add four rect primitives between the rounded corners*
20,1,$1+$1,$2,$3,$4,$5,0*
20,1,$1+$1,$4,$5,$6,$7,0*
20,1,$1+$1,$6,$7,$8,$9,0*
20,1,$1+$1,$8,$9,$2,$3,0*%
G04 Aperture macros list end*
%TA.AperFunction,ComponentPad*%
%ADD10O,1.800000X1.150000*%
%TD*%
%TA.AperFunction,ComponentPad*%
%ADD11O,2.000000X1.450000*%
%TD*%
%TA.AperFunction,SMDPad,CuDef*%
%ADD12RoundRect,0.112500X-0.537500X0.112500X-0.537500X-0.112500X0.537500X-0.112500X0.537500X0.112500X0*%
%TD*%
%TA.AperFunction,SMDPad,CuDef*%
%ADD13RoundRect,0.375000X-0.375000X0.625000X-0.375000X-0.625000X0.375000X-0.625000X0.375000X0.625000X0*%
%TD*%
%TA.AperFunction,SMDPad,CuDef*%
%ADD14RoundRect,0.500000X-1.400000X0.500000X-1.400000X-0.500000X1.400000X-0.500000X1.400000X0.500000X0*%
%TD*%
%TA.AperFunction,SMDPad,CuDef*%
%ADD15RoundRect,0.140000X0.170000X-0.140000X0.170000X0.140000X-0.170000X0.140000X-0.170000X-0.140000X0*%
%TD*%
%TA.AperFunction,SMDPad,CuDef*%
%ADD16RoundRect,0.140000X-0.140000X-0.170000X0.140000X-0.170000X0.140000X0.170000X-0.140000X0.170000X0*%
%TD*%
%TA.AperFunction,SMDPad,CuDef*%
%ADD17RoundRect,0.140000X-0.170000X0.140000X-0.170000X-0.140000X0.170000X-0.140000X0.170000X0.140000X0*%
%TD*%
%TA.AperFunction,SMDPad,CuDef*%
%ADD18RoundRect,0.218750X0.256250X-0.218750X0.256250X0.218750X-0.256250X0.218750X-0.256250X-0.218750X0*%
%TD*%
%TA.AperFunction,SMDPad,CuDef*%
%ADD19RoundRect,0.075000X0.662500X0.075000X-0.662500X0.075000X-0.662500X-0.075000X0.662500X-0.075000X0*%
%TD*%
%TA.AperFunction,SMDPad,CuDef*%
%ADD20RoundRect,0.075000X0.075000X0.662500X-0.075000X0.662500X-0.075000X-0.662500X0.075000X-0.662500X0*%
%TD*%
%TA.AperFunction,SMDPad,CuDef*%
%ADD21RoundRect,0.135000X-0.185000X0.135000X-0.185000X-0.135000X0.185000X-0.135000X0.185000X0.135000X0*%
%TD*%
%TA.AperFunction,ComponentPad*%
%ADD22R,1.700000X1.700000*%
%TD*%
%TA.AperFunction,ComponentPad*%
%ADD23C,1.700000*%
%TD*%
%TA.AperFunction,SMDPad,CuDef*%
%ADD24RoundRect,0.250000X-0.250000X-0.475000X0.250000X-0.475000X0.250000X0.475000X-0.250000X0.475000X0*%
%TD*%
%TA.AperFunction,SMDPad,CuDef*%
%ADD25R,0.800000X1.000000*%
%TD*%
%TA.AperFunction,SMDPad,CuDef*%
%ADD26R,1.500000X0.700000*%
%TD*%
%TA.AperFunction,SMDPad,CuDef*%
%ADD27RoundRect,0.140000X0.140000X0.170000X-0.140000X0.170000X-0.140000X-0.170000X0.140000X-0.170000X0*%
%TD*%
%TA.AperFunction,SMDPad,CuDef*%
%ADD28RoundRect,0.135000X0.185000X-0.135000X0.185000X0.135000X-0.185000X0.135000X-0.185000X-0.135000X0*%
%TD*%
%TA.AperFunction,SMDPad,CuDef*%
%ADD29RoundRect,0.250000X-0.450000X-0.350000X0.450000X-0.350000X0.450000X0.350000X-0.450000X0.350000X0*%
%TD*%
%TA.AperFunction,SMDPad,CuDef*%
%ADD30RoundRect,0.225000X0.225000X0.250000X-0.225000X0.250000X-0.225000X-0.250000X0.225000X-0.250000X0*%
%TD*%
%TA.AperFunction,SMDPad,CuDef*%
%ADD31RoundRect,0.250000X0.475000X-0.250000X0.475000X0.250000X-0.475000X0.250000X-0.475000X-0.250000X0*%
%TD*%
%TA.AperFunction,ViaPad*%
%ADD32C,0.700000*%
%TD*%
%TA.AperFunction,Conductor*%
%ADD33C,0.300000*%
%TD*%
%TA.AperFunction,Conductor*%
%ADD34C,0.200000*%
%TD*%
%TA.AperFunction,Conductor*%
%ADD35C,0.500000*%
%TD*%
%TA.AperFunction,Conductor*%
%ADD36C,0.450000*%
%TD*%
G04 APERTURE END LIST*
D10*
%TO.P,J1,SH,Shield_SH*%
%TO.N,unconnected-(J1-Shield-PadSH)_3*%
X24050000Y-51975000D03*
D11*
%TO.N,unconnected-(J1-Shield-PadSH)_2*%
X27850000Y-51825000D03*
%TO.N,unconnected-(J1-Shield-PadSH)_1*%
X27850000Y-44375000D03*
D10*
%TO.N,unconnected-(J1-Shield-PadSH)*%
X24050000Y-44225000D03*
D12*
%TO.P,J1,5,GND_5*%
%TO.N,GND*%
X27900000Y-49400000D03*
%TO.P,J1,4,ID_4*%
%TO.N,unconnected-(J1-ID-Pad4)*%
X27900000Y-48750000D03*
%TO.P,J1,3,D+_3*%
%TO.N,/USB_D+*%
X27900000Y-48100000D03*
%TO.P,J1,2,D-_2*%
%TO.N,/USB_D-*%
X27900000Y-47450000D03*
%TO.P,J1,1,VBUS_1*%
%TO.N,VBUS*%
X27900000Y-46800000D03*
%TD*%
D13*
%TO.P,U1,1,GND_1*%
%TO.N,GND*%
X34050000Y-33850000D03*
%TO.P,U1,2,VO_2*%
%TO.N,+3.3V*%
X31750000Y-33850000D03*
D14*
X31750000Y-40150000D03*
D13*
%TO.P,U1,3,VI_3*%
%TO.N,VBUS*%
X29450000Y-33850000D03*
%TD*%
D15*
%TO.P,C9,1*%
%TO.N,+3.3VA*%
X46700000Y-43980000D03*
%TO.P,C9,2*%
%TO.N,GND*%
X46700000Y-43020000D03*
%TD*%
%TO.P,C6,1*%
%TO.N,+3.3V*%
X34900000Y-50480000D03*
%TO.P,C6,2*%
%TO.N,GND*%
X34900000Y-49520000D03*
%TD*%
D16*
%TO.P,C11,1*%
%TO.N,/NRST*%
X50110000Y-40230000D03*
%TO.P,C11,2*%
%TO.N,GND*%
X51070000Y-40230000D03*
%TD*%
D17*
%TO.P,C4,1*%
%TO.N,+3.3V*%
X46750000Y-49520000D03*
%TO.P,C4,2*%
%TO.N,GND*%
X46750000Y-50480000D03*
%TD*%
D18*
%TO.P,D1,1,K_1*%
%TO.N,/PWR_LED_K*%
X36750000Y-38537500D03*
%TO.P,D1,2,A_2*%
%TO.N,+3.3V*%
X36750000Y-36962500D03*
%TD*%
D17*
%TO.P,C8,1*%
%TO.N,+3.3VA*%
X46700000Y-45220000D03*
%TO.P,C8,2*%
%TO.N,GND*%
X46700000Y-46180000D03*
%TD*%
D19*
%TO.P,U2,1,VBAT_1*%
%TO.N,+3.3V*%
X44912500Y-49500000D03*
%TO.P,U2,2,PC13_2*%
%TO.N,unconnected-(U2-PC13-Pad2)*%
X44912500Y-49000000D03*
%TO.P,U2,3,PC14_3*%
%TO.N,unconnected-(U2-PC14-Pad3)*%
X44912500Y-48500000D03*
%TO.P,U2,4,PC15_4*%
%TO.N,unconnected-(U2-PC15-Pad4)*%
X44912500Y-48000000D03*
%TO.P,U2,5,PD0_5*%
%TO.N,/HSE_IN*%
X44912500Y-47500000D03*
%TO.P,U2,6,PD1_6*%
%TO.N,/HSE_OUT*%
X44912500Y-47000000D03*
%TO.P,U2,7,NRST_7*%
%TO.N,/NRST*%
X44912500Y-46500000D03*
%TO.P,U2,8,VSSA_8*%
%TO.N,GND*%
X44912500Y-46000000D03*
%TO.P,U2,9,VDDA_9*%
%TO.N,+3.3VA*%
X44912500Y-45500000D03*
%TO.P,U2,10,PA0_10*%
%TO.N,unconnected-(U2-PA0-Pad10)*%
X44912500Y-45000000D03*
%TO.P,U2,11,PA1_11*%
%TO.N,unconnected-(U2-PA1-Pad11)*%
X44912500Y-44500000D03*
%TO.P,U2,12,PA2_12*%
%TO.N,unconnected-(U2-PA2-Pad12)*%
X44912500Y-44000000D03*
D20*
%TO.P,U2,13,PA3_13*%
%TO.N,unconnected-(U2-PA3-Pad13)*%
X43500000Y-42587500D03*
%TO.P,U2,14,PA4_14*%
%TO.N,unconnected-(U2-PA4-Pad14)*%
X43000000Y-42587500D03*
%TO.P,U2,15,PA5_15*%
%TO.N,unconnected-(U2-PA5-Pad15)*%
X42500000Y-42587500D03*
%TO.P,U2,16,PA6_16*%
%TO.N,unconnected-(U2-PA6-Pad16)*%
X42000000Y-42587500D03*
%TO.P,U2,17,PA7_17*%
%TO.N,unconnected-(U2-PA7-Pad17)*%
X41500000Y-42587500D03*
%TO.P,U2,18,PB0_18*%
%TO.N,unconnected-(U2-PB0-Pad18)*%
X41000000Y-42587500D03*
%TO.P,U2,19,PB1_19*%
%TO.N,unconnected-(U2-PB1-Pad19)*%
X40500000Y-42587500D03*
%TO.P,U2,20,PB2_20*%
%TO.N,unconnected-(U2-PB2-Pad20)*%
X40000000Y-42587500D03*
%TO.P,U2,21,PB10_21*%
%TO.N,/I2C2_SCL*%
X39500000Y-42587500D03*
%TO.P,U2,22,PB11_22*%
%TO.N,/I2C2_SDA*%
X39000000Y-42587500D03*
%TO.P,U2,23,VSS_23*%
%TO.N,GND*%
X38500000Y-42587500D03*
%TO.P,U2,24,VDD_24*%
%TO.N,+3.3V*%
X38000000Y-42587500D03*
D19*
%TO.P,U2,25,PB12_25*%
%TO.N,unconnected-(U2-PB12-Pad25)*%
X36587500Y-44000000D03*
%TO.P,U2,26,PB13_26*%
%TO.N,unconnected-(U2-PB13-Pad26)*%
X36587500Y-44500000D03*
%TO.P,U2,27,PB14_27*%
%TO.N,unconnected-(U2-PB14-Pad27)*%
X36587500Y-45000000D03*
%TO.P,U2,28,PB15_28*%
%TO.N,unconnected-(U2-PB15-Pad28)*%
X36587500Y-45500000D03*
%TO.P,U2,29,PA8_29*%
%TO.N,unconnected-(U2-PA8-Pad29)*%
X36587500Y-46000000D03*
%TO.P,U2,30,PA9_30*%
%TO.N,unconnected-(U2-PA9-Pad30)*%
X36587500Y-46500000D03*
%TO.P,U2,31,PA10_31*%
%TO.N,unconnected-(U2-PA10-Pad31)*%
X36587500Y-47000000D03*
%TO.P,U2,32,PA11_32*%
%TO.N,/USB_D-*%
X36587500Y-47500000D03*
%TO.P,U2,33,PA12_33*%
%TO.N,/USB_D+*%
X36587500Y-48000000D03*
%TO.P,U2,34,PA13_34*%
%TO.N,/SWDIO*%
X36587500Y-48500000D03*
%TO.P,U2,35,VSS_35*%
%TO.N,GND*%
X36587500Y-49000000D03*
%TO.P,U2,36,VDD_36*%
%TO.N,+3.3V*%
X36587500Y-49500000D03*
D20*
%TO.P,U2,37,PA14_37*%
%TO.N,/SWCLK*%
X38000000Y-50912500D03*
%TO.P,U2,38,PA15_38*%
%TO.N,unconnected-(U2-PA15-Pad38)*%
X38500000Y-50912500D03*
%TO.P,U2,39,PB3_39*%
%TO.N,unconnected-(U2-PB3-Pad39)*%
X39000000Y-50912500D03*
%TO.P,U2,40,PB4_40*%
%TO.N,unconnected-(U2-PB4-Pad40)*%
X39500000Y-50912500D03*
%TO.P,U2,41,PB5_41*%
%TO.N,unconnected-(U2-PB5-Pad41)*%
X40000000Y-50912500D03*
%TO.P,U2,42,PB6_42*%
%TO.N,/USART1_TX*%
X40500000Y-50912500D03*
%TO.P,U2,43,PB7_43*%
%TO.N,/USART1_RX*%
X41000000Y-50912500D03*
%TO.P,U2,44,BOOT0_44*%
%TO.N,/BOOT0*%
X41500000Y-50912500D03*
%TO.P,U2,45,PB8_45*%
%TO.N,unconnected-(U2-PB8-Pad45)*%
X42000000Y-50912500D03*
%TO.P,U2,46,PB9_46*%
%TO.N,unconnected-(U2-PB9-Pad46)*%
X42500000Y-50912500D03*
%TO.P,U2,47,VSS_47*%
%TO.N,GND*%
X43000000Y-50912500D03*
%TO.P,U2,48,VDD_48*%
%TO.N,+3.3V*%
X43500000Y-50912500D03*
%TD*%
D21*
%TO.P,R1,1*%
%TO.N,/PWR_LED_K*%
X36100000Y-39890000D03*
%TO.P,R1,2*%
%TO.N,GND*%
X36100000Y-40910000D03*
%TD*%
D22*
%TO.P,J2,1,Pin_1_1*%
%TO.N,+3.3V*%
X30200000Y-60500000D03*
D23*
%TO.P,J2,2,Pin_2_2*%
%TO.N,/SWDIO*%
X32740000Y-60500000D03*
%TO.P,J2,3,Pin_3_3*%
%TO.N,/SWCLK*%
X35280000Y-60500000D03*
%TO.P,J2,4,Pin_4_4*%
%TO.N,GND*%
X37820000Y-60500000D03*
%TD*%
D24*
%TO.P,C1,1*%
%TO.N,VBUS*%
X30900000Y-44030000D03*
%TO.P,C1,2*%
%TO.N,GND*%
X32800000Y-44030000D03*
%TD*%
D25*
%TO.P,SW1,*%
%TO.N,*%
X54420000Y-56150000D03*
X56630000Y-56150000D03*
X54420000Y-48850000D03*
X56630000Y-48850000D03*
D26*
%TO.P,SW1,1,A_1*%
%TO.N,GND*%
X53770000Y-54750000D03*
%TO.P,SW1,2,B_2*%
%TO.N,/SW_BOOT0*%
X53770000Y-51750000D03*
%TO.P,SW1,3,C_3*%
%TO.N,+3.3V*%
X53770000Y-50250000D03*
%TD*%
D27*
%TO.P,C10,1*%
%TO.N,+3.3V*%
X46830000Y-41950000D03*
%TO.P,C10,2*%
%TO.N,GND*%
X45870000Y-41950000D03*
%TD*%
D16*
%TO.P,C12,1*%
%TO.N,/HSE_IN*%
X50150000Y-49740000D03*
%TO.P,C12,2*%
%TO.N,GND*%
X51110000Y-49740000D03*
%TD*%
%TO.P,C13,1*%
%TO.N,/HSE_OUT*%
X50150000Y-44800000D03*
%TO.P,C13,2*%
%TO.N,GND*%
X51110000Y-44800000D03*
%TD*%
D21*
%TO.P,R4,1*%
%TO.N,+3.3V*%
X41100000Y-38690000D03*
%TO.P,R4,2*%
%TO.N,/I2C2_SCL*%
X41100000Y-39710000D03*
%TD*%
D18*
%TO.P,FB1,1*%
%TO.N,+3.3VA*%
X48350000Y-43987500D03*
%TO.P,FB1,2*%
%TO.N,+3.3V*%
X48350000Y-42412500D03*
%TD*%
D28*
%TO.P,R2,1*%
%TO.N,/SW_BOOT0*%
X41500000Y-54210000D03*
%TO.P,R2,2*%
%TO.N,/BOOT0*%
X41500000Y-53190000D03*
%TD*%
D16*
%TO.P,C5,1*%
%TO.N,+3.3V*%
X37420000Y-40800000D03*
%TO.P,C5,2*%
%TO.N,GND*%
X38380000Y-40800000D03*
%TD*%
D21*
%TO.P,R5,1*%
%TO.N,+3.3V*%
X39900000Y-38690000D03*
%TO.P,R5,2*%
%TO.N,/I2C2_SDA*%
X39900000Y-39710000D03*
%TD*%
D29*
%TO.P,Y2,1,1_1*%
%TO.N,/HSE_IN*%
X48900000Y-48100000D03*
%TO.P,Y2,2,G_2*%
%TO.N,GND*%
X51100000Y-48100000D03*
%TO.P,Y2,3,G_3*%
X51100000Y-46400000D03*
%TO.P,Y2,4,4_4*%
%TO.N,/HSE_OUT*%
X48900000Y-46400000D03*
%TD*%
D27*
%TO.P,C7,1*%
%TO.N,+3.3V*%
X44280000Y-52700000D03*
%TO.P,C7,2*%
%TO.N,GND*%
X43320000Y-52700000D03*
%TD*%
D22*
%TO.P,J4,1,Pin_1_1*%
%TO.N,+3.3V*%
X49410000Y-34300000D03*
D23*
%TO.P,J4,2,Pin_2_2*%
%TO.N,/I2C2_SCL*%
X46870000Y-34300000D03*
%TO.P,J4,3,Pin_3_3*%
%TO.N,/I2C2_SDA*%
X44330000Y-34300000D03*
%TO.P,J4,4,Pin_4_4*%
%TO.N,GND*%
X41790000Y-34300000D03*
%TD*%
D30*
%TO.P,C3,1*%
%TO.N,+3.3V*%
X44575000Y-54200000D03*
%TO.P,C3,2*%
%TO.N,GND*%
X43025000Y-54200000D03*
%TD*%
D31*
%TO.P,C2,1*%
%TO.N,+3.3V*%
X36750000Y-35200000D03*
%TO.P,C2,2*%
%TO.N,GND*%
X36750000Y-33300000D03*
%TD*%
D28*
%TO.P,R3,1*%
%TO.N,+3.3V*%
X33600000Y-49260000D03*
%TO.P,R3,2*%
%TO.N,/USB_D+*%
X33600000Y-48240000D03*
%TD*%
D22*
%TO.P,J3,1,Pin_1_1*%
%TO.N,+3.3V*%
X42220000Y-60500000D03*
D23*
%TO.P,J3,2,Pin_2_2*%
%TO.N,/USART1_TX*%
X44760000Y-60500000D03*
%TO.P,J3,3,Pin_3_3*%
%TO.N,/USART1_RX*%
X47300000Y-60500000D03*
%TO.P,J3,4,Pin_4_4*%
%TO.N,GND*%
X49840000Y-60500000D03*
%TD*%
D32*
%TO.N,GND*%
X43370000Y-45590000D03*
%TO.N,+3.3V*%
X48350000Y-40975000D03*
X43100000Y-36960000D03*
%TO.N,GND*%
X36100000Y-42000000D03*
X33300000Y-45750000D03*
X32500000Y-45500000D03*
X52010000Y-40230000D03*
%TO.N,+3.3V*%
X38130000Y-36960000D03*
X45900000Y-53700000D03*
%TO.N,GND*%
X34900000Y-48700000D03*
%TO.N,+3.3V*%
X34000000Y-50230000D03*
X34000000Y-46900000D03*
%TO.N,GND*%
X30000000Y-49400000D03*
X34800000Y-35400000D03*
X33600000Y-35400000D03*
X38900000Y-33800000D03*
X38100000Y-33200000D03*
X38500000Y-44140000D03*
X46750000Y-51290000D03*
X43000000Y-49240000D03*
X45870000Y-41090000D03*
X52800000Y-47350000D03*
X52050000Y-54780000D03*
%TD*%
%TO.N,/NRST*%
D33*
X42550000Y-45940000D02*
X43110000Y-46500000D01*
X42550000Y-45021880D02*
X42550000Y-45940000D01*
X44500000Y-43071880D02*
X42550000Y-45021880D01*
X43110000Y-46500000D02*
X44912500Y-46500000D01*
X44500000Y-40790000D02*
X44500000Y-43071880D01*
X45060000Y-40230000D02*
X44500000Y-40790000D01*
X50110000Y-40230000D02*
X45060000Y-40230000D01*
%TO.N,GND*%
D34*
X43780000Y-46000000D02*
X43370000Y-45590000D01*
X44912500Y-46000000D02*
X43780000Y-46000000D01*
%TO.N,/SWDIO*%
D33*
X32740000Y-57400000D02*
X32740000Y-60500000D01*
X37200000Y-52940000D02*
X32740000Y-57400000D01*
X37890000Y-49681880D02*
X37200000Y-50371880D01*
X37890000Y-48730000D02*
X37890000Y-49681880D01*
X37200000Y-50371880D02*
X37200000Y-52940000D01*
X37660000Y-48500000D02*
X37890000Y-48730000D01*
X36587500Y-48500000D02*
X37660000Y-48500000D01*
%TO.N,/SW_BOOT0*%
X50500000Y-51750000D02*
X53770000Y-51750000D01*
X46760000Y-55490000D02*
X50500000Y-51750000D01*
X41760000Y-55490000D02*
X46760000Y-55490000D01*
X41500000Y-55230000D02*
X41760000Y-55490000D01*
X41500000Y-54210000D02*
X41500000Y-55230000D01*
%TO.N,+3.3V*%
D35*
X48080000Y-50750000D02*
X48080000Y-49830000D01*
X48080000Y-49830000D02*
X47770000Y-49520000D01*
X47770000Y-49520000D02*
X46750000Y-49520000D01*
X47070000Y-53700000D02*
X48080000Y-52690000D01*
X48080000Y-52690000D02*
X48080000Y-50750000D01*
X45900000Y-53700000D02*
X47070000Y-53700000D01*
%TO.N,GND*%
X52080000Y-54750000D02*
X52050000Y-54780000D01*
X54270000Y-54750000D02*
X52080000Y-54750000D01*
%TO.N,+3.3V*%
D33*
X47837500Y-42412500D02*
X48350000Y-42412500D01*
X47375000Y-41950000D02*
X47837500Y-42412500D01*
X46830000Y-41950000D02*
X47375000Y-41950000D01*
D35*
X48350000Y-42412500D02*
X48350000Y-40975000D01*
D33*
X42210000Y-38690000D02*
X41100000Y-38690000D01*
X43100000Y-37800000D02*
X42210000Y-38690000D01*
X43100000Y-36960000D02*
X43100000Y-37800000D01*
%TO.N,/I2C2_SCL*%
X42990000Y-39710000D02*
X46870000Y-35830000D01*
X46870000Y-35830000D02*
X46870000Y-34300000D01*
X41000000Y-39710000D02*
X42990000Y-39710000D01*
%TO.N,/I2C2_SDA*%
X44300000Y-34300000D02*
X44330000Y-34300000D01*
X41000000Y-37600000D02*
X44300000Y-34300000D01*
X39400000Y-37600000D02*
X41000000Y-37600000D01*
X39000000Y-38000000D02*
X39400000Y-37600000D01*
X39220000Y-39710000D02*
X39000000Y-39490000D01*
X39000000Y-39490000D02*
X39000000Y-38000000D01*
X39900000Y-39710000D02*
X39220000Y-39710000D01*
%TO.N,GND*%
X36100000Y-40910000D02*
X36100000Y-42000000D01*
%TO.N,+3.3V*%
D35*
X34770000Y-43170000D02*
X34770000Y-46130000D01*
X34770000Y-46130000D02*
X34000000Y-46900000D01*
X31750000Y-40150000D02*
X34770000Y-43170000D01*
%TO.N,GND*%
X51070000Y-40230000D02*
X52010000Y-40230000D01*
%TO.N,+3.3V*%
D33*
X38100000Y-36990000D02*
X38127500Y-36962500D01*
X38100000Y-39400000D02*
X38100000Y-36990000D01*
X38127500Y-36962500D02*
X38130000Y-36960000D01*
D35*
X36750000Y-36962500D02*
X38127500Y-36962500D01*
X45400000Y-54200000D02*
X45900000Y-53700000D01*
X44575000Y-54200000D02*
X45400000Y-54200000D01*
X34000000Y-53800000D02*
X34000000Y-50230000D01*
X30200000Y-57600000D02*
X34000000Y-53800000D01*
X30200000Y-60500000D02*
X30200000Y-57600000D01*
D33*
X34250000Y-50480000D02*
X34000000Y-50230000D01*
X34900000Y-50480000D02*
X34250000Y-50480000D01*
X34000000Y-49660000D02*
X33600000Y-49260000D01*
X34000000Y-50230000D02*
X34000000Y-49660000D01*
%TO.N,/USB_D+*%
D34*
X33600000Y-48100000D02*
X33500000Y-48000000D01*
X33600000Y-48240000D02*
X33600000Y-48100000D01*
X33360000Y-48000000D02*
X33600000Y-48240000D01*
%TO.N,/USB_D-*%
X28875001Y-47450000D02*
X27900000Y-47450000D01*
X28975001Y-47550000D02*
X28875001Y-47450000D01*
X36537500Y-47550000D02*
X28975001Y-47550000D01*
X36587500Y-47500000D02*
X36537500Y-47550000D01*
%TO.N,/USB_D+*%
X36587500Y-48000000D02*
X33500000Y-48000000D01*
%TO.N,+3.3V*%
D33*
X34900000Y-50480000D02*
X35607500Y-50480000D01*
X35607500Y-50480000D02*
X36587500Y-49500000D01*
%TO.N,GND*%
X34900000Y-49520000D02*
X34900000Y-48700000D01*
X35420000Y-49000000D02*
X34900000Y-49520000D01*
X36587500Y-49000000D02*
X35420000Y-49000000D01*
%TO.N,+3.3V*%
X37420000Y-40080000D02*
X37420000Y-40800000D01*
X38100000Y-39400000D02*
X37420000Y-40080000D01*
%TO.N,/PWR_LED_K*%
X36750000Y-39240000D02*
X36100000Y-39890000D01*
X36750000Y-38537500D02*
X36750000Y-39240000D01*
%TO.N,/I2C2_SDA*%
X39900000Y-40639774D02*
X39900000Y-39710000D01*
X39000000Y-41539774D02*
X39900000Y-40639774D01*
X39000000Y-42587500D02*
X39000000Y-41539774D01*
%TO.N,GND*%
D36*
X27900000Y-49400000D02*
X30000000Y-49400000D01*
D33*
X38500000Y-42587500D02*
X38500000Y-44140000D01*
X46750000Y-50480000D02*
X46750000Y-51290000D01*
X43000000Y-50912500D02*
X43000000Y-49240000D01*
X45870000Y-41950000D02*
X45870000Y-41090000D01*
D35*
X51100000Y-47350000D02*
X52800000Y-47350000D01*
X51100000Y-47350000D02*
X51100000Y-46400000D01*
X51100000Y-48100000D02*
X51100000Y-47350000D01*
%TO.N,+3.3V*%
D33*
X36750000Y-35200000D02*
X36750000Y-36962500D01*
%TO.N,/I2C2_SCL*%
X39500000Y-41746880D02*
X41100000Y-40146880D01*
X41100000Y-40146880D02*
X41100000Y-39710000D01*
X39500000Y-42587500D02*
X39500000Y-41746880D01*
%TO.N,+3.3V*%
X39900000Y-38690000D02*
X41000000Y-38690000D01*
X37420000Y-41220000D02*
X37420000Y-40800000D01*
X38000000Y-41800000D02*
X37420000Y-41220000D01*
X38000000Y-42587500D02*
X38000000Y-41800000D01*
%TO.N,GND*%
X38380000Y-41380000D02*
X38380000Y-40800000D01*
X38500000Y-42587500D02*
X38500000Y-41500000D01*
X38500000Y-41500000D02*
X38380000Y-41380000D01*
X46120000Y-43020000D02*
X46700000Y-43020000D01*
X45870000Y-42770000D02*
X46120000Y-43020000D01*
X45870000Y-41950000D02*
X45870000Y-42770000D01*
%TO.N,+3.3VA*%
D34*
X48342500Y-43980000D02*
X48350000Y-43987500D01*
X46700000Y-43980000D02*
X48342500Y-43980000D01*
X46700000Y-45220000D02*
X46700000Y-43980000D01*
%TO.N,/USART1_RX*%
D33*
X47300000Y-57700000D02*
X47300000Y-60500000D01*
X46500000Y-56900000D02*
X47300000Y-57700000D01*
X41500000Y-56900000D02*
X46500000Y-56900000D01*
X40400000Y-52830366D02*
X40400000Y-55800000D01*
X41000000Y-50912500D02*
X41000000Y-52230366D01*
X41000000Y-52230366D02*
X40400000Y-52830366D01*
X40400000Y-55800000D02*
X41500000Y-56900000D01*
%TO.N,/USART1_TX*%
X44000000Y-58000000D02*
X44760000Y-58760000D01*
X44760000Y-58760000D02*
X44760000Y-60500000D01*
X41300000Y-58000000D02*
X44000000Y-58000000D01*
X39700000Y-52700000D02*
X39700000Y-56400000D01*
X40500000Y-51900000D02*
X39700000Y-52700000D01*
X39700000Y-56400000D02*
X41300000Y-58000000D01*
X40500000Y-50912500D02*
X40500000Y-51900000D01*
%TO.N,/BOOT0*%
X41500000Y-50912500D02*
X41500000Y-53190000D01*
%TO.N,+3.3V*%
X44280000Y-51692500D02*
X44280000Y-52700000D01*
X43500000Y-50912500D02*
X44280000Y-51692500D01*
%TO.N,GND*%
X43320000Y-52220000D02*
X43320000Y-52700000D01*
X43000000Y-51900000D02*
X43320000Y-52220000D01*
X43000000Y-50912500D02*
X43000000Y-51900000D01*
%TO.N,/USB_D+*%
D34*
X33500000Y-48000000D02*
X32900000Y-48000000D01*
%TO.N,/SWCLK*%
D33*
X35280000Y-56470000D02*
X35280000Y-60500000D01*
X38000000Y-53750000D02*
X35280000Y-56470000D01*
X38000000Y-50912500D02*
X38000000Y-53750000D01*
%TO.N,/USB_D+*%
D34*
X32900000Y-48000000D02*
X28975001Y-48000000D01*
X28875001Y-48100000D02*
X27900000Y-48100000D01*
X28975001Y-48000000D02*
X28875001Y-48100000D01*
%TO.N,+3.3V*%
X46730000Y-49500000D02*
X46750000Y-49520000D01*
D33*
X44912500Y-49500000D02*
X46730000Y-49500000D01*
%TO.N,GND*%
D34*
X46000000Y-46000000D02*
X46180000Y-46180000D01*
X46180000Y-46180000D02*
X46700000Y-46180000D01*
X44912500Y-46000000D02*
X46000000Y-46000000D01*
%TO.N,+3.3VA*%
X46030000Y-45220000D02*
X46700000Y-45220000D01*
X44912500Y-45500000D02*
X45750000Y-45500000D01*
X45750000Y-45500000D02*
X46030000Y-45220000D01*
%TO.N,GND*%
D33*
X51110000Y-49740000D02*
X51110000Y-48110000D01*
D35*
X43025000Y-54200000D02*
X43025000Y-52995000D01*
D33*
X51110000Y-44800000D02*
X51110000Y-46390000D01*
X51110000Y-46390000D02*
X51100000Y-46400000D01*
D35*
X43025000Y-52995000D02*
X43320000Y-52700000D01*
D33*
X51110000Y-48110000D02*
X51100000Y-48100000D01*
%TO.N,+3.3V*%
D35*
X44575000Y-52995000D02*
X44280000Y-52700000D01*
X44575000Y-54200000D02*
X44575000Y-52995000D01*
%TO.N,/HSE_IN*%
D33*
X47100000Y-47500000D02*
X44912500Y-47500000D01*
X48900000Y-48100000D02*
X47700000Y-48100000D01*
X47700000Y-48100000D02*
X47100000Y-47500000D01*
X48900000Y-48100000D02*
X48900000Y-48490000D01*
X48900000Y-48490000D02*
X50150000Y-49740000D01*
%TO.N,/HSE_OUT*%
X47100000Y-47000000D02*
X47700000Y-46400000D01*
X44912500Y-47000000D02*
X47100000Y-47000000D01*
X48900000Y-46400000D02*
X48900000Y-46050000D01*
X47700000Y-46400000D02*
X48900000Y-46400000D01*
X48900000Y-46050000D02*
X50150000Y-44800000D01*
%TO.N,+3.3V*%
D35*
X52460000Y-50250000D02*
X53770000Y-50250000D01*
X51960000Y-50750000D02*
X52460000Y-50250000D01*
X48080000Y-50750000D02*
X51960000Y-50750000D01*
%TD*%
%TA.AperFunction,Conductor*%
%TO.N,VBUS*%
G36*
X30293106Y-32755023D02*
G01*
X30308104Y-32759427D01*
X30366855Y-32797172D01*
X30368042Y-32798541D01*
X30387907Y-32842004D01*
X30391363Y-32840908D01*
X30394195Y-32849835D01*
X30395582Y-32858794D01*
X30397087Y-32862087D01*
X30396608Y-32865423D01*
X30400000Y-32887331D01*
X30400000Y-36530808D01*
X30394976Y-36565745D01*
X30387564Y-36590986D01*
X30356269Y-36643730D01*
X29000000Y-37999998D01*
X29000000Y-37999999D01*
X29000000Y-38000000D01*
X29000000Y-41500000D01*
X29250000Y-41750000D01*
X30430808Y-41750000D01*
X30465740Y-41755021D01*
X30490984Y-41762434D01*
X30543730Y-41793730D01*
X31451073Y-42701073D01*
X31472223Y-42729325D01*
X31484831Y-42752414D01*
X31500000Y-42811843D01*
X31500000Y-46430808D01*
X31494976Y-46465745D01*
X31487564Y-46490986D01*
X31456269Y-46543730D01*
X30973926Y-47026073D01*
X30945675Y-47047222D01*
X30922587Y-47059830D01*
X30863157Y-47075000D01*
X29047348Y-47075000D01*
X29031163Y-47073939D01*
X29015189Y-47071836D01*
X28999281Y-47068672D01*
X28927729Y-47049500D01*
X28927728Y-47049500D01*
X28802763Y-47049500D01*
X28767827Y-47044477D01*
X28742585Y-47037065D01*
X28689837Y-47005766D01*
X28683286Y-46999215D01*
X28683282Y-46999212D01*
X28683281Y-46999211D01*
X28640532Y-46977429D01*
X28607556Y-46946284D01*
X28470003Y-46924500D01*
X27641830Y-46924500D01*
X27606889Y-46919475D01*
X27591890Y-46915070D01*
X27533144Y-46877327D01*
X27531957Y-46875958D01*
X27504477Y-46821083D01*
X27502832Y-46813521D01*
X27500000Y-46787168D01*
X27500000Y-46391829D01*
X27505023Y-46356893D01*
X27509427Y-46341895D01*
X27547172Y-46283144D01*
X27548541Y-46281957D01*
X27603420Y-46254477D01*
X27610979Y-46252833D01*
X27637332Y-46250000D01*
X29500000Y-46250000D01*
X30000000Y-45750000D01*
X30000000Y-43500000D01*
X29500000Y-43000000D01*
X28569192Y-43000000D01*
X28534256Y-42994977D01*
X28509014Y-42987565D01*
X28456269Y-42956269D01*
X27798926Y-42298926D01*
X27777774Y-42270670D01*
X27765167Y-42247581D01*
X27750000Y-42188156D01*
X27750000Y-32891829D01*
X27755023Y-32856893D01*
X27759427Y-32841895D01*
X27797172Y-32783144D01*
X27798541Y-32781957D01*
X27853420Y-32754477D01*
X27860979Y-32752833D01*
X27887332Y-32750000D01*
X30258170Y-32750000D01*
X30293106Y-32755023D01*
G37*
%TD.AperFunction*%
%TD*%
%TA.AperFunction,Conductor*%
%TO.N,+3.3V*%
G36*
X32593106Y-32805023D02*
G01*
X32608104Y-32809427D01*
X32666855Y-32847172D01*
X32668042Y-32848541D01*
X32687907Y-32892004D01*
X32691363Y-32890908D01*
X32694195Y-32899835D01*
X32695582Y-32908794D01*
X32697087Y-32912087D01*
X32696608Y-32915423D01*
X32700000Y-32937331D01*
X32700000Y-38000000D01*
X33751480Y-38860302D01*
X33781785Y-38896838D01*
X33784828Y-38902410D01*
X33800000Y-38961844D01*
X33800000Y-40930808D01*
X33794976Y-40965745D01*
X33787564Y-40990986D01*
X33756269Y-41043730D01*
X33448926Y-41351073D01*
X33420675Y-41372222D01*
X33397587Y-41384830D01*
X33338157Y-41400000D01*
X30169192Y-41400000D01*
X30134256Y-41394977D01*
X30109014Y-41387565D01*
X30056269Y-41356269D01*
X29647895Y-40947895D01*
X29626745Y-40919642D01*
X29614362Y-40896965D01*
X29599224Y-40834776D01*
X29646364Y-38719684D01*
X29652164Y-38684876D01*
X29660290Y-38659322D01*
X29690775Y-38609223D01*
X30800000Y-37500000D01*
X30800000Y-32941829D01*
X30805023Y-32906893D01*
X30809427Y-32891895D01*
X30847172Y-32833144D01*
X30848541Y-32831957D01*
X30903420Y-32804477D01*
X30910979Y-32802833D01*
X30937332Y-32800000D01*
X32558170Y-32800000D01*
X32593106Y-32805023D01*
G37*
%TD.AperFunction*%
%TD*%
%TA.AperFunction,Conductor*%
%TO.N,GND*%
G36*
X39165740Y-32805021D02*
G01*
X39190984Y-32812434D01*
X39243730Y-32843730D01*
X39351073Y-32951073D01*
X39372223Y-32979325D01*
X39384831Y-33002414D01*
X39400000Y-33061843D01*
X39400000Y-33930808D01*
X39394976Y-33965745D01*
X39387564Y-33990986D01*
X39356269Y-34043730D01*
X39248926Y-34151073D01*
X39220675Y-34172222D01*
X39197587Y-34184830D01*
X39138157Y-34200000D01*
X35700000Y-34200000D01*
X35528572Y-34328571D01*
X35300000Y-34499998D01*
X35300000Y-35530808D01*
X35294976Y-35565745D01*
X35287564Y-35590986D01*
X35256269Y-35643730D01*
X35148926Y-35751073D01*
X35120675Y-35772222D01*
X35097587Y-35784830D01*
X35038157Y-35800000D01*
X33369192Y-35800000D01*
X33334256Y-35794977D01*
X33309014Y-35787565D01*
X33256269Y-35756269D01*
X33148926Y-35648926D01*
X33127774Y-35620670D01*
X33115167Y-35597581D01*
X33100000Y-35538156D01*
X33100000Y-32969191D01*
X33105022Y-32934258D01*
X33112434Y-32909013D01*
X33143728Y-32856271D01*
X33151076Y-32848923D01*
X33179326Y-32827775D01*
X33202418Y-32815167D01*
X33261843Y-32800000D01*
X39130808Y-32800000D01*
X39165740Y-32805021D01*
G37*
%TD.AperFunction*%
%TD*%
%TA.AperFunction,Conductor*%
%TO.N,GND*%
G36*
X33515677Y-43019685D02*
G01*
X33536319Y-43036319D01*
X33713681Y-43213681D01*
X33747166Y-43275004D01*
X33750000Y-43301362D01*
X33750000Y-45948638D01*
X33730315Y-46015677D01*
X33713681Y-46036319D01*
X33536319Y-46213681D01*
X33474996Y-46247166D01*
X33448638Y-46250000D01*
X32301362Y-46250000D01*
X32234323Y-46230315D01*
X32213681Y-46213681D01*
X32036319Y-46036319D01*
X32002834Y-45974996D01*
X32000000Y-45948638D01*
X32000000Y-43301362D01*
X32019685Y-43234323D01*
X32036319Y-43213681D01*
X32213681Y-43036319D01*
X32275004Y-43002834D01*
X32301362Y-43000000D01*
X33448638Y-43000000D01*
X33515677Y-43019685D01*
G37*
%TD.AperFunction*%
%TD*%
%TA.AperFunction,Conductor*%
%TO.N,+3.3V*%
G36*
X37715677Y-34719685D02*
G01*
X37736319Y-34736319D01*
X37763681Y-34763681D01*
X37797166Y-34825004D01*
X37800000Y-34851362D01*
X37800000Y-37348638D01*
X37780315Y-37415677D01*
X37763681Y-37436319D01*
X37736319Y-37463681D01*
X37674996Y-37497166D01*
X37648638Y-37500000D01*
X34599999Y-37500000D01*
X33700000Y-38399999D01*
X33700000Y-38800000D01*
X33763681Y-38863681D01*
X33770198Y-38875617D01*
X32700000Y-38000000D01*
X32700000Y-36300000D01*
X33000000Y-36600000D01*
X35400000Y-36600000D01*
X35900000Y-36100000D01*
X35900000Y-34851362D01*
X35919685Y-34784323D01*
X35936319Y-34763681D01*
X35963681Y-34736319D01*
X36025004Y-34702834D01*
X36051362Y-34700000D01*
X37648638Y-34700000D01*
X37715677Y-34719685D01*
G37*
%TD.AperFunction*%
%TD*%
M02*
