%TF.GenerationSoftware,KiCad,Pcbnew,10.0.0*%
%TF.CreationDate,2026-04-13T22:00:40+05:30*%
%TF.ProjectId,Udemy_philslab_stm32,5564656d-795f-4706-9869-6c736c61625f,rev?*%
%TF.SameCoordinates,Original*%
%TF.FileFunction,Legend,Top*%
%TF.FilePolarity,Positive*%
%FSLAX46Y46*%
G04 Gerber Fmt 4.6, Leading zero omitted, Abs format (unit mm)*
G04 Created by KiCad (PCBNEW 10.0.0) date 2026-04-13 22:00:40*
%MOMM*%
%LPD*%
G01*
G04 APERTURE LIST*
%ADD10C,0.100000*%
%ADD11C,0.150000*%
%ADD12C,0.200000*%
%ADD13C,0.130000*%
%ADD14C,0.120000*%
G04 APERTURE END LIST*
D10*
X23292455Y-55509133D02*
X23292455Y-56075800D01*
X23292455Y-56075800D02*
X23325789Y-56142466D01*
X23325789Y-56142466D02*
X23359122Y-56175800D01*
X23359122Y-56175800D02*
X23425789Y-56209133D01*
X23425789Y-56209133D02*
X23559122Y-56209133D01*
X23559122Y-56209133D02*
X23625789Y-56175800D01*
X23625789Y-56175800D02*
X23659122Y-56142466D01*
X23659122Y-56142466D02*
X23692455Y-56075800D01*
X23692455Y-56075800D02*
X23692455Y-55509133D01*
X24325788Y-56209133D02*
X24325788Y-55509133D01*
X24325788Y-56175800D02*
X24259122Y-56209133D01*
X24259122Y-56209133D02*
X24125788Y-56209133D01*
X24125788Y-56209133D02*
X24059122Y-56175800D01*
X24059122Y-56175800D02*
X24025788Y-56142466D01*
X24025788Y-56142466D02*
X23992455Y-56075800D01*
X23992455Y-56075800D02*
X23992455Y-55875800D01*
X23992455Y-55875800D02*
X24025788Y-55809133D01*
X24025788Y-55809133D02*
X24059122Y-55775800D01*
X24059122Y-55775800D02*
X24125788Y-55742466D01*
X24125788Y-55742466D02*
X24259122Y-55742466D01*
X24259122Y-55742466D02*
X24325788Y-55775800D01*
X24925788Y-56175800D02*
X24859121Y-56209133D01*
X24859121Y-56209133D02*
X24725788Y-56209133D01*
X24725788Y-56209133D02*
X24659121Y-56175800D01*
X24659121Y-56175800D02*
X24625788Y-56109133D01*
X24625788Y-56109133D02*
X24625788Y-55842466D01*
X24625788Y-55842466D02*
X24659121Y-55775800D01*
X24659121Y-55775800D02*
X24725788Y-55742466D01*
X24725788Y-55742466D02*
X24859121Y-55742466D01*
X24859121Y-55742466D02*
X24925788Y-55775800D01*
X24925788Y-55775800D02*
X24959121Y-55842466D01*
X24959121Y-55842466D02*
X24959121Y-55909133D01*
X24959121Y-55909133D02*
X24625788Y-55975800D01*
X25259121Y-56209133D02*
X25259121Y-55742466D01*
X25259121Y-55809133D02*
X25292455Y-55775800D01*
X25292455Y-55775800D02*
X25359121Y-55742466D01*
X25359121Y-55742466D02*
X25459121Y-55742466D01*
X25459121Y-55742466D02*
X25525788Y-55775800D01*
X25525788Y-55775800D02*
X25559121Y-55842466D01*
X25559121Y-55842466D02*
X25559121Y-56209133D01*
X25559121Y-55842466D02*
X25592455Y-55775800D01*
X25592455Y-55775800D02*
X25659121Y-55742466D01*
X25659121Y-55742466D02*
X25759121Y-55742466D01*
X25759121Y-55742466D02*
X25825788Y-55775800D01*
X25825788Y-55775800D02*
X25859121Y-55842466D01*
X25859121Y-55842466D02*
X25859121Y-56209133D01*
X26125788Y-55742466D02*
X26292454Y-56209133D01*
X26459121Y-55742466D02*
X26292454Y-56209133D01*
X26292454Y-56209133D02*
X26225788Y-56375800D01*
X26225788Y-56375800D02*
X26192454Y-56409133D01*
X26192454Y-56409133D02*
X26125788Y-56442466D01*
X26559121Y-56275800D02*
X27092454Y-56275800D01*
X27225787Y-56175800D02*
X27325787Y-56209133D01*
X27325787Y-56209133D02*
X27492454Y-56209133D01*
X27492454Y-56209133D02*
X27559120Y-56175800D01*
X27559120Y-56175800D02*
X27592454Y-56142466D01*
X27592454Y-56142466D02*
X27625787Y-56075800D01*
X27625787Y-56075800D02*
X27625787Y-56009133D01*
X27625787Y-56009133D02*
X27592454Y-55942466D01*
X27592454Y-55942466D02*
X27559120Y-55909133D01*
X27559120Y-55909133D02*
X27492454Y-55875800D01*
X27492454Y-55875800D02*
X27359120Y-55842466D01*
X27359120Y-55842466D02*
X27292454Y-55809133D01*
X27292454Y-55809133D02*
X27259120Y-55775800D01*
X27259120Y-55775800D02*
X27225787Y-55709133D01*
X27225787Y-55709133D02*
X27225787Y-55642466D01*
X27225787Y-55642466D02*
X27259120Y-55575800D01*
X27259120Y-55575800D02*
X27292454Y-55542466D01*
X27292454Y-55542466D02*
X27359120Y-55509133D01*
X27359120Y-55509133D02*
X27525787Y-55509133D01*
X27525787Y-55509133D02*
X27625787Y-55542466D01*
X27825787Y-55509133D02*
X28225787Y-55509133D01*
X28025787Y-56209133D02*
X28025787Y-55509133D01*
X28459120Y-56209133D02*
X28459120Y-55509133D01*
X28459120Y-55509133D02*
X28692454Y-56009133D01*
X28692454Y-56009133D02*
X28925787Y-55509133D01*
X28925787Y-55509133D02*
X28925787Y-56209133D01*
X29192454Y-55509133D02*
X29625787Y-55509133D01*
X29625787Y-55509133D02*
X29392454Y-55775800D01*
X29392454Y-55775800D02*
X29492454Y-55775800D01*
X29492454Y-55775800D02*
X29559120Y-55809133D01*
X29559120Y-55809133D02*
X29592454Y-55842466D01*
X29592454Y-55842466D02*
X29625787Y-55909133D01*
X29625787Y-55909133D02*
X29625787Y-56075800D01*
X29625787Y-56075800D02*
X29592454Y-56142466D01*
X29592454Y-56142466D02*
X29559120Y-56175800D01*
X29559120Y-56175800D02*
X29492454Y-56209133D01*
X29492454Y-56209133D02*
X29292454Y-56209133D01*
X29292454Y-56209133D02*
X29225787Y-56175800D01*
X29225787Y-56175800D02*
X29192454Y-56142466D01*
X29892454Y-55575800D02*
X29925787Y-55542466D01*
X29925787Y-55542466D02*
X29992454Y-55509133D01*
X29992454Y-55509133D02*
X30159121Y-55509133D01*
X30159121Y-55509133D02*
X30225787Y-55542466D01*
X30225787Y-55542466D02*
X30259121Y-55575800D01*
X30259121Y-55575800D02*
X30292454Y-55642466D01*
X30292454Y-55642466D02*
X30292454Y-55709133D01*
X30292454Y-55709133D02*
X30259121Y-55809133D01*
X30259121Y-55809133D02*
X29859121Y-56209133D01*
X29859121Y-56209133D02*
X30292454Y-56209133D01*
G36*
X56413533Y-41900760D02*
G01*
X56413533Y-41643493D01*
X56454565Y-41643493D01*
X56454565Y-41661659D01*
X56456888Y-41690694D01*
X56462259Y-41706111D01*
X56471908Y-41716952D01*
X56486280Y-41724276D01*
X56500227Y-41727290D01*
X56525689Y-41728593D01*
X56780776Y-41728593D01*
X56514319Y-41478037D01*
X56485938Y-41454828D01*
X56472475Y-41451237D01*
X56464710Y-41453296D01*
X56459053Y-41459615D01*
X56456018Y-41470434D01*
X56454565Y-41495732D01*
X56454565Y-41511034D01*
X56413533Y-41511034D01*
X56413533Y-41271933D01*
X56454565Y-41271933D01*
X56455945Y-41299362D01*
X56460763Y-41323095D01*
X56468624Y-41344512D01*
X56477390Y-41359469D01*
X56511627Y-41401058D01*
X56694522Y-41579892D01*
X56965680Y-41375711D01*
X56998731Y-41348745D01*
X57015603Y-41331729D01*
X57027253Y-41314883D01*
X57034538Y-41298219D01*
X57038353Y-41278598D01*
X57039967Y-41244663D01*
X57081000Y-41244663D01*
X57081000Y-41527746D01*
X57039967Y-41527746D01*
X57039967Y-41511034D01*
X57038513Y-41477567D01*
X57030820Y-41464658D01*
X57018809Y-41459871D01*
X57003336Y-41465306D01*
X56961534Y-41492868D01*
X56758593Y-41643493D01*
X56846087Y-41728593D01*
X56974314Y-41728593D01*
X57003989Y-41726521D01*
X57018424Y-41721926D01*
X57028494Y-41713555D01*
X57035735Y-41701324D01*
X57038523Y-41685988D01*
X57039967Y-41643493D01*
X57081000Y-41643493D01*
X57081000Y-41900760D01*
X57039967Y-41900760D01*
X57039967Y-41880671D01*
X57038144Y-41853005D01*
X57034111Y-41839553D01*
X57026499Y-41830011D01*
X57014578Y-41822584D01*
X56998223Y-41818443D01*
X56966108Y-41816600D01*
X56525689Y-41816600D01*
X56493418Y-41818393D01*
X56477860Y-41822328D01*
X56466840Y-41829524D01*
X56459866Y-41839083D01*
X56456281Y-41853178D01*
X56454565Y-41885928D01*
X56454565Y-41900760D01*
X56413533Y-41900760D01*
G37*
G36*
X56391648Y-41090747D02*
G01*
X56395634Y-41069447D01*
X56407549Y-41051552D01*
X56425120Y-41039337D01*
X56446102Y-41035267D01*
X56467166Y-41039331D01*
X56484955Y-41051552D01*
X56497037Y-41069464D01*
X56501069Y-41090747D01*
X56497039Y-41112038D01*
X56484955Y-41129985D01*
X56467170Y-41142173D01*
X56446102Y-41146227D01*
X56425116Y-41142166D01*
X56407549Y-41129985D01*
X56395632Y-41112054D01*
X56391648Y-41090747D01*
G37*
G36*
X56689820Y-41212691D02*
G01*
X56648787Y-41212691D01*
X56642688Y-41174655D01*
X56635281Y-41145970D01*
X56624622Y-41118414D01*
X56607755Y-41084549D01*
X56607755Y-41049629D01*
X56990727Y-41049629D01*
X57009401Y-41047978D01*
X57020861Y-41043901D01*
X57029526Y-41037008D01*
X57035436Y-41027873D01*
X57038560Y-41015433D01*
X57039967Y-40990345D01*
X57039967Y-40967862D01*
X57081000Y-40967862D01*
X57081000Y-41212691D01*
X57039967Y-41212691D01*
X57039967Y-41193073D01*
X57038159Y-41163701D01*
X57034239Y-41150031D01*
X57027241Y-41140579D01*
X57018040Y-41134515D01*
X57004057Y-41131459D01*
X56968843Y-41129942D01*
X56689820Y-41129942D01*
X56689820Y-41212691D01*
G37*
G36*
X57081000Y-40399515D02*
G01*
X56763679Y-40644344D01*
X56763679Y-40729915D01*
X56968843Y-40729915D01*
X57010945Y-40727521D01*
X57024835Y-40720407D01*
X57033427Y-40710553D01*
X57037910Y-40695978D01*
X57039967Y-40664904D01*
X57039967Y-40647678D01*
X57081000Y-40647678D01*
X57081000Y-40903492D01*
X57039967Y-40903492D01*
X57039967Y-40880539D01*
X57038908Y-40856834D01*
X57036633Y-40845875D01*
X57024879Y-40830103D01*
X57015625Y-40824318D01*
X57003550Y-40820315D01*
X56955166Y-40818862D01*
X56520218Y-40818862D01*
X56493160Y-40820589D01*
X56478416Y-40824590D01*
X56467331Y-40831633D01*
X56460165Y-40840618D01*
X56456267Y-40852862D01*
X56454565Y-40876222D01*
X56454565Y-40903492D01*
X56413533Y-40903492D01*
X56413533Y-40559201D01*
X56413634Y-40556808D01*
X56465508Y-40556808D01*
X56465508Y-40729915D01*
X56717175Y-40729915D01*
X56717175Y-40592669D01*
X56714521Y-40528055D01*
X56708541Y-40494660D01*
X56698531Y-40469357D01*
X56684517Y-40448456D01*
X56666355Y-40431316D01*
X56644798Y-40418751D01*
X56619091Y-40410894D01*
X56588221Y-40408107D01*
X56550180Y-40412534D01*
X56520389Y-40424862D01*
X56496284Y-40444652D01*
X56479185Y-40470511D01*
X56469478Y-40503247D01*
X56465508Y-40556808D01*
X56413634Y-40556808D01*
X56416309Y-40493434D01*
X56423573Y-40445275D01*
X56433964Y-40410970D01*
X56450053Y-40379326D01*
X56469716Y-40353858D01*
X56493034Y-40333735D01*
X56519890Y-40318842D01*
X56549514Y-40309822D01*
X56582622Y-40306721D01*
X56616713Y-40309741D01*
X56647466Y-40318539D01*
X56675544Y-40333051D01*
X56700282Y-40352756D01*
X56721539Y-40377768D01*
X56739444Y-40408833D01*
X56751752Y-40442672D01*
X56760150Y-40485757D01*
X56763679Y-40540095D01*
X56977990Y-40364125D01*
X57010389Y-40335915D01*
X57023318Y-40318515D01*
X57032444Y-40300780D01*
X57038019Y-40281592D01*
X57039967Y-40259405D01*
X57039967Y-40247438D01*
X57081000Y-40247438D01*
X57081000Y-40399515D01*
G37*
G36*
X57081000Y-39819030D02*
G01*
X57039967Y-39819030D01*
X57039026Y-39796547D01*
X57037501Y-39775659D01*
X57034239Y-39766413D01*
X57023668Y-39755860D01*
X57011286Y-39752565D01*
X56997988Y-39754861D01*
X56962090Y-39765943D01*
X56832067Y-39809925D01*
X56832067Y-40051891D01*
X56977477Y-40103524D01*
X57008465Y-40111687D01*
X57017526Y-40110397D01*
X57025178Y-40106644D01*
X57035906Y-40093009D01*
X57038421Y-40083068D01*
X57039497Y-40065269D01*
X57039967Y-40044240D01*
X57081000Y-40044240D01*
X57081000Y-40243633D01*
X57039967Y-40243633D01*
X57038323Y-40217898D01*
X57034496Y-40203712D01*
X57027503Y-40192474D01*
X57016928Y-40182469D01*
X57001180Y-40173408D01*
X56965851Y-40158533D01*
X56413533Y-39950505D01*
X56413533Y-39931400D01*
X56499402Y-39931400D01*
X56785563Y-40034195D01*
X56785563Y-39828091D01*
X56499402Y-39931400D01*
X56413533Y-39931400D01*
X56413533Y-39871646D01*
X56971536Y-39664558D01*
X57008789Y-39647633D01*
X57026546Y-39633741D01*
X57036394Y-39616165D01*
X57039967Y-39591896D01*
X57039967Y-39581381D01*
X57081000Y-39581381D01*
X57081000Y-39819030D01*
G37*
D11*
X30084398Y-46984295D02*
X29570112Y-46984295D01*
X29827255Y-46984295D02*
X29827255Y-46184295D01*
X29827255Y-46184295D02*
X29741541Y-46298580D01*
X29741541Y-46298580D02*
X29655826Y-46374771D01*
X29655826Y-46374771D02*
X29570112Y-46412866D01*
X24602969Y-41934295D02*
X24602969Y-42581914D01*
X24602969Y-42581914D02*
X24645826Y-42658104D01*
X24645826Y-42658104D02*
X24688684Y-42696200D01*
X24688684Y-42696200D02*
X24774398Y-42734295D01*
X24774398Y-42734295D02*
X24945826Y-42734295D01*
X24945826Y-42734295D02*
X25031541Y-42696200D01*
X25031541Y-42696200D02*
X25074398Y-42658104D01*
X25074398Y-42658104D02*
X25117255Y-42581914D01*
X25117255Y-42581914D02*
X25117255Y-41934295D01*
X25502969Y-42696200D02*
X25631541Y-42734295D01*
X25631541Y-42734295D02*
X25845826Y-42734295D01*
X25845826Y-42734295D02*
X25931541Y-42696200D01*
X25931541Y-42696200D02*
X25974398Y-42658104D01*
X25974398Y-42658104D02*
X26017255Y-42581914D01*
X26017255Y-42581914D02*
X26017255Y-42505723D01*
X26017255Y-42505723D02*
X25974398Y-42429533D01*
X25974398Y-42429533D02*
X25931541Y-42391438D01*
X25931541Y-42391438D02*
X25845826Y-42353342D01*
X25845826Y-42353342D02*
X25674398Y-42315247D01*
X25674398Y-42315247D02*
X25588683Y-42277152D01*
X25588683Y-42277152D02*
X25545826Y-42239057D01*
X25545826Y-42239057D02*
X25502969Y-42162866D01*
X25502969Y-42162866D02*
X25502969Y-42086676D01*
X25502969Y-42086676D02*
X25545826Y-42010485D01*
X25545826Y-42010485D02*
X25588683Y-41972390D01*
X25588683Y-41972390D02*
X25674398Y-41934295D01*
X25674398Y-41934295D02*
X25888683Y-41934295D01*
X25888683Y-41934295D02*
X26017255Y-41972390D01*
X26702969Y-42315247D02*
X26831541Y-42353342D01*
X26831541Y-42353342D02*
X26874398Y-42391438D01*
X26874398Y-42391438D02*
X26917255Y-42467628D01*
X26917255Y-42467628D02*
X26917255Y-42581914D01*
X26917255Y-42581914D02*
X26874398Y-42658104D01*
X26874398Y-42658104D02*
X26831541Y-42696200D01*
X26831541Y-42696200D02*
X26745826Y-42734295D01*
X26745826Y-42734295D02*
X26402969Y-42734295D01*
X26402969Y-42734295D02*
X26402969Y-41934295D01*
X26402969Y-41934295D02*
X26702969Y-41934295D01*
X26702969Y-41934295D02*
X26788684Y-41972390D01*
X26788684Y-41972390D02*
X26831541Y-42010485D01*
X26831541Y-42010485D02*
X26874398Y-42086676D01*
X26874398Y-42086676D02*
X26874398Y-42162866D01*
X26874398Y-42162866D02*
X26831541Y-42239057D01*
X26831541Y-42239057D02*
X26788684Y-42277152D01*
X26788684Y-42277152D02*
X26702969Y-42315247D01*
X26702969Y-42315247D02*
X26402969Y-42315247D01*
D12*
X39896933Y-34634136D02*
X39896933Y-33948422D01*
X49615863Y-58346933D02*
X50301578Y-58346933D01*
X37515863Y-58476933D02*
X38201578Y-58476933D01*
D11*
X44552969Y-57094295D02*
X44552969Y-57741914D01*
X44552969Y-57741914D02*
X44595826Y-57818104D01*
X44595826Y-57818104D02*
X44638684Y-57856200D01*
X44638684Y-57856200D02*
X44724398Y-57894295D01*
X44724398Y-57894295D02*
X44895826Y-57894295D01*
X44895826Y-57894295D02*
X44981541Y-57856200D01*
X44981541Y-57856200D02*
X45024398Y-57818104D01*
X45024398Y-57818104D02*
X45067255Y-57741914D01*
X45067255Y-57741914D02*
X45067255Y-57094295D01*
X45452969Y-57665723D02*
X45881541Y-57665723D01*
X45367255Y-57894295D02*
X45667255Y-57094295D01*
X45667255Y-57094295D02*
X45967255Y-57894295D01*
X46781541Y-57894295D02*
X46481541Y-57513342D01*
X46267255Y-57894295D02*
X46267255Y-57094295D01*
X46267255Y-57094295D02*
X46610112Y-57094295D01*
X46610112Y-57094295D02*
X46695827Y-57132390D01*
X46695827Y-57132390D02*
X46738684Y-57170485D01*
X46738684Y-57170485D02*
X46781541Y-57246676D01*
X46781541Y-57246676D02*
X46781541Y-57360961D01*
X46781541Y-57360961D02*
X46738684Y-57437152D01*
X46738684Y-57437152D02*
X46695827Y-57475247D01*
X46695827Y-57475247D02*
X46610112Y-57513342D01*
X46610112Y-57513342D02*
X46267255Y-57513342D01*
X47038684Y-57094295D02*
X47552970Y-57094295D01*
X47295827Y-57894295D02*
X47295827Y-57094295D01*
X33040112Y-57856200D02*
X33168684Y-57894295D01*
X33168684Y-57894295D02*
X33382969Y-57894295D01*
X33382969Y-57894295D02*
X33468684Y-57856200D01*
X33468684Y-57856200D02*
X33511541Y-57818104D01*
X33511541Y-57818104D02*
X33554398Y-57741914D01*
X33554398Y-57741914D02*
X33554398Y-57665723D01*
X33554398Y-57665723D02*
X33511541Y-57589533D01*
X33511541Y-57589533D02*
X33468684Y-57551438D01*
X33468684Y-57551438D02*
X33382969Y-57513342D01*
X33382969Y-57513342D02*
X33211541Y-57475247D01*
X33211541Y-57475247D02*
X33125826Y-57437152D01*
X33125826Y-57437152D02*
X33082969Y-57399057D01*
X33082969Y-57399057D02*
X33040112Y-57322866D01*
X33040112Y-57322866D02*
X33040112Y-57246676D01*
X33040112Y-57246676D02*
X33082969Y-57170485D01*
X33082969Y-57170485D02*
X33125826Y-57132390D01*
X33125826Y-57132390D02*
X33211541Y-57094295D01*
X33211541Y-57094295D02*
X33425826Y-57094295D01*
X33425826Y-57094295D02*
X33554398Y-57132390D01*
X33854398Y-57094295D02*
X34068684Y-57894295D01*
X34068684Y-57894295D02*
X34240112Y-57322866D01*
X34240112Y-57322866D02*
X34411541Y-57894295D01*
X34411541Y-57894295D02*
X34625827Y-57094295D01*
X34968683Y-57894295D02*
X34968683Y-57094295D01*
X34968683Y-57094295D02*
X35182969Y-57094295D01*
X35182969Y-57094295D02*
X35311540Y-57132390D01*
X35311540Y-57132390D02*
X35397255Y-57208580D01*
X35397255Y-57208580D02*
X35440112Y-57284771D01*
X35440112Y-57284771D02*
X35482969Y-57437152D01*
X35482969Y-57437152D02*
X35482969Y-57551438D01*
X35482969Y-57551438D02*
X35440112Y-57703819D01*
X35440112Y-57703819D02*
X35397255Y-57780009D01*
X35397255Y-57780009D02*
X35311540Y-57856200D01*
X35311540Y-57856200D02*
X35182969Y-57894295D01*
X35182969Y-57894295D02*
X34968683Y-57894295D01*
X44282969Y-37404295D02*
X44282969Y-36604295D01*
X44668683Y-36680485D02*
X44711540Y-36642390D01*
X44711540Y-36642390D02*
X44797255Y-36604295D01*
X44797255Y-36604295D02*
X45011540Y-36604295D01*
X45011540Y-36604295D02*
X45097255Y-36642390D01*
X45097255Y-36642390D02*
X45140112Y-36680485D01*
X45140112Y-36680485D02*
X45182969Y-36756676D01*
X45182969Y-36756676D02*
X45182969Y-36832866D01*
X45182969Y-36832866D02*
X45140112Y-36947152D01*
X45140112Y-36947152D02*
X44625826Y-37404295D01*
X44625826Y-37404295D02*
X45182969Y-37404295D01*
X46082969Y-37328104D02*
X46040112Y-37366200D01*
X46040112Y-37366200D02*
X45911540Y-37404295D01*
X45911540Y-37404295D02*
X45825826Y-37404295D01*
X45825826Y-37404295D02*
X45697255Y-37366200D01*
X45697255Y-37366200D02*
X45611540Y-37290009D01*
X45611540Y-37290009D02*
X45568683Y-37213819D01*
X45568683Y-37213819D02*
X45525826Y-37061438D01*
X45525826Y-37061438D02*
X45525826Y-36947152D01*
X45525826Y-36947152D02*
X45568683Y-36794771D01*
X45568683Y-36794771D02*
X45611540Y-36718580D01*
X45611540Y-36718580D02*
X45697255Y-36642390D01*
X45697255Y-36642390D02*
X45825826Y-36604295D01*
X45825826Y-36604295D02*
X45911540Y-36604295D01*
X45911540Y-36604295D02*
X46040112Y-36642390D01*
X46040112Y-36642390D02*
X46082969Y-36680485D01*
D13*
X29766666Y-52163335D02*
X29766666Y-52734763D01*
X29766666Y-52734763D02*
X29733333Y-52849049D01*
X29733333Y-52849049D02*
X29666666Y-52925240D01*
X29666666Y-52925240D02*
X29566666Y-52963335D01*
X29566666Y-52963335D02*
X29500000Y-52963335D01*
X30466666Y-52963335D02*
X30066666Y-52963335D01*
X30266666Y-52963335D02*
X30266666Y-52163335D01*
X30266666Y-52163335D02*
X30199999Y-52277620D01*
X30199999Y-52277620D02*
X30133333Y-52353811D01*
X30133333Y-52353811D02*
X30066666Y-52391906D01*
X26886666Y-37593335D02*
X26886666Y-38240954D01*
X26886666Y-38240954D02*
X26920000Y-38317144D01*
X26920000Y-38317144D02*
X26953333Y-38355240D01*
X26953333Y-38355240D02*
X27020000Y-38393335D01*
X27020000Y-38393335D02*
X27153333Y-38393335D01*
X27153333Y-38393335D02*
X27220000Y-38355240D01*
X27220000Y-38355240D02*
X27253333Y-38317144D01*
X27253333Y-38317144D02*
X27286666Y-38240954D01*
X27286666Y-38240954D02*
X27286666Y-37593335D01*
X27986666Y-38393335D02*
X27586666Y-38393335D01*
X27786666Y-38393335D02*
X27786666Y-37593335D01*
X27786666Y-37593335D02*
X27719999Y-37707620D01*
X27719999Y-37707620D02*
X27653333Y-37783811D01*
X27653333Y-37783811D02*
X27586666Y-37821906D01*
X45373333Y-43337144D02*
X45340000Y-43375240D01*
X45340000Y-43375240D02*
X45240000Y-43413335D01*
X45240000Y-43413335D02*
X45173333Y-43413335D01*
X45173333Y-43413335D02*
X45073333Y-43375240D01*
X45073333Y-43375240D02*
X45006667Y-43299049D01*
X45006667Y-43299049D02*
X44973333Y-43222859D01*
X44973333Y-43222859D02*
X44940000Y-43070478D01*
X44940000Y-43070478D02*
X44940000Y-42956192D01*
X44940000Y-42956192D02*
X44973333Y-42803811D01*
X44973333Y-42803811D02*
X45006667Y-42727620D01*
X45006667Y-42727620D02*
X45073333Y-42651430D01*
X45073333Y-42651430D02*
X45173333Y-42613335D01*
X45173333Y-42613335D02*
X45240000Y-42613335D01*
X45240000Y-42613335D02*
X45340000Y-42651430D01*
X45340000Y-42651430D02*
X45373333Y-42689525D01*
X45706667Y-43413335D02*
X45840000Y-43413335D01*
X45840000Y-43413335D02*
X45906667Y-43375240D01*
X45906667Y-43375240D02*
X45940000Y-43337144D01*
X45940000Y-43337144D02*
X46006667Y-43222859D01*
X46006667Y-43222859D02*
X46040000Y-43070478D01*
X46040000Y-43070478D02*
X46040000Y-42765716D01*
X46040000Y-42765716D02*
X46006667Y-42689525D01*
X46006667Y-42689525D02*
X45973333Y-42651430D01*
X45973333Y-42651430D02*
X45906667Y-42613335D01*
X45906667Y-42613335D02*
X45773333Y-42613335D01*
X45773333Y-42613335D02*
X45706667Y-42651430D01*
X45706667Y-42651430D02*
X45673333Y-42689525D01*
X45673333Y-42689525D02*
X45640000Y-42765716D01*
X45640000Y-42765716D02*
X45640000Y-42956192D01*
X45640000Y-42956192D02*
X45673333Y-43032382D01*
X45673333Y-43032382D02*
X45706667Y-43070478D01*
X45706667Y-43070478D02*
X45773333Y-43108573D01*
X45773333Y-43108573D02*
X45906667Y-43108573D01*
X45906667Y-43108573D02*
X45973333Y-43070478D01*
X45973333Y-43070478D02*
X46006667Y-43032382D01*
X46006667Y-43032382D02*
X46040000Y-42956192D01*
X34783333Y-51787144D02*
X34750000Y-51825240D01*
X34750000Y-51825240D02*
X34650000Y-51863335D01*
X34650000Y-51863335D02*
X34583333Y-51863335D01*
X34583333Y-51863335D02*
X34483333Y-51825240D01*
X34483333Y-51825240D02*
X34416667Y-51749049D01*
X34416667Y-51749049D02*
X34383333Y-51672859D01*
X34383333Y-51672859D02*
X34350000Y-51520478D01*
X34350000Y-51520478D02*
X34350000Y-51406192D01*
X34350000Y-51406192D02*
X34383333Y-51253811D01*
X34383333Y-51253811D02*
X34416667Y-51177620D01*
X34416667Y-51177620D02*
X34483333Y-51101430D01*
X34483333Y-51101430D02*
X34583333Y-51063335D01*
X34583333Y-51063335D02*
X34650000Y-51063335D01*
X34650000Y-51063335D02*
X34750000Y-51101430D01*
X34750000Y-51101430D02*
X34783333Y-51139525D01*
X35383333Y-51063335D02*
X35250000Y-51063335D01*
X35250000Y-51063335D02*
X35183333Y-51101430D01*
X35183333Y-51101430D02*
X35150000Y-51139525D01*
X35150000Y-51139525D02*
X35083333Y-51253811D01*
X35083333Y-51253811D02*
X35050000Y-51406192D01*
X35050000Y-51406192D02*
X35050000Y-51710954D01*
X35050000Y-51710954D02*
X35083333Y-51787144D01*
X35083333Y-51787144D02*
X35116667Y-51825240D01*
X35116667Y-51825240D02*
X35183333Y-51863335D01*
X35183333Y-51863335D02*
X35316667Y-51863335D01*
X35316667Y-51863335D02*
X35383333Y-51825240D01*
X35383333Y-51825240D02*
X35416667Y-51787144D01*
X35416667Y-51787144D02*
X35450000Y-51710954D01*
X35450000Y-51710954D02*
X35450000Y-51520478D01*
X35450000Y-51520478D02*
X35416667Y-51444287D01*
X35416667Y-51444287D02*
X35383333Y-51406192D01*
X35383333Y-51406192D02*
X35316667Y-51368097D01*
X35316667Y-51368097D02*
X35183333Y-51368097D01*
X35183333Y-51368097D02*
X35116667Y-51406192D01*
X35116667Y-51406192D02*
X35083333Y-51444287D01*
X35083333Y-51444287D02*
X35050000Y-51520478D01*
X50109999Y-39517144D02*
X50076666Y-39555240D01*
X50076666Y-39555240D02*
X49976666Y-39593335D01*
X49976666Y-39593335D02*
X49909999Y-39593335D01*
X49909999Y-39593335D02*
X49809999Y-39555240D01*
X49809999Y-39555240D02*
X49743333Y-39479049D01*
X49743333Y-39479049D02*
X49709999Y-39402859D01*
X49709999Y-39402859D02*
X49676666Y-39250478D01*
X49676666Y-39250478D02*
X49676666Y-39136192D01*
X49676666Y-39136192D02*
X49709999Y-38983811D01*
X49709999Y-38983811D02*
X49743333Y-38907620D01*
X49743333Y-38907620D02*
X49809999Y-38831430D01*
X49809999Y-38831430D02*
X49909999Y-38793335D01*
X49909999Y-38793335D02*
X49976666Y-38793335D01*
X49976666Y-38793335D02*
X50076666Y-38831430D01*
X50076666Y-38831430D02*
X50109999Y-38869525D01*
X50776666Y-39593335D02*
X50376666Y-39593335D01*
X50576666Y-39593335D02*
X50576666Y-38793335D01*
X50576666Y-38793335D02*
X50509999Y-38907620D01*
X50509999Y-38907620D02*
X50443333Y-38983811D01*
X50443333Y-38983811D02*
X50376666Y-39021906D01*
X51443333Y-39593335D02*
X51043333Y-39593335D01*
X51243333Y-39593335D02*
X51243333Y-38793335D01*
X51243333Y-38793335D02*
X51176666Y-38907620D01*
X51176666Y-38907620D02*
X51110000Y-38983811D01*
X51110000Y-38983811D02*
X51043333Y-39021906D01*
X47813333Y-50967144D02*
X47780000Y-51005240D01*
X47780000Y-51005240D02*
X47680000Y-51043335D01*
X47680000Y-51043335D02*
X47613333Y-51043335D01*
X47613333Y-51043335D02*
X47513333Y-51005240D01*
X47513333Y-51005240D02*
X47446667Y-50929049D01*
X47446667Y-50929049D02*
X47413333Y-50852859D01*
X47413333Y-50852859D02*
X47380000Y-50700478D01*
X47380000Y-50700478D02*
X47380000Y-50586192D01*
X47380000Y-50586192D02*
X47413333Y-50433811D01*
X47413333Y-50433811D02*
X47446667Y-50357620D01*
X47446667Y-50357620D02*
X47513333Y-50281430D01*
X47513333Y-50281430D02*
X47613333Y-50243335D01*
X47613333Y-50243335D02*
X47680000Y-50243335D01*
X47680000Y-50243335D02*
X47780000Y-50281430D01*
X47780000Y-50281430D02*
X47813333Y-50319525D01*
X48413333Y-50510001D02*
X48413333Y-51043335D01*
X48246667Y-50205240D02*
X48080000Y-50776668D01*
X48080000Y-50776668D02*
X48513333Y-50776668D01*
X37783333Y-38133335D02*
X37783333Y-37333335D01*
X37783333Y-37333335D02*
X37950000Y-37333335D01*
X37950000Y-37333335D02*
X38050000Y-37371430D01*
X38050000Y-37371430D02*
X38116667Y-37447620D01*
X38116667Y-37447620D02*
X38150000Y-37523811D01*
X38150000Y-37523811D02*
X38183333Y-37676192D01*
X38183333Y-37676192D02*
X38183333Y-37790478D01*
X38183333Y-37790478D02*
X38150000Y-37942859D01*
X38150000Y-37942859D02*
X38116667Y-38019049D01*
X38116667Y-38019049D02*
X38050000Y-38095240D01*
X38050000Y-38095240D02*
X37950000Y-38133335D01*
X37950000Y-38133335D02*
X37783333Y-38133335D01*
X38850000Y-38133335D02*
X38450000Y-38133335D01*
X38650000Y-38133335D02*
X38650000Y-37333335D01*
X38650000Y-37333335D02*
X38583333Y-37447620D01*
X38583333Y-37447620D02*
X38516667Y-37523811D01*
X38516667Y-37523811D02*
X38450000Y-37561906D01*
X46573333Y-47457144D02*
X46540000Y-47495240D01*
X46540000Y-47495240D02*
X46440000Y-47533335D01*
X46440000Y-47533335D02*
X46373333Y-47533335D01*
X46373333Y-47533335D02*
X46273333Y-47495240D01*
X46273333Y-47495240D02*
X46206667Y-47419049D01*
X46206667Y-47419049D02*
X46173333Y-47342859D01*
X46173333Y-47342859D02*
X46140000Y-47190478D01*
X46140000Y-47190478D02*
X46140000Y-47076192D01*
X46140000Y-47076192D02*
X46173333Y-46923811D01*
X46173333Y-46923811D02*
X46206667Y-46847620D01*
X46206667Y-46847620D02*
X46273333Y-46771430D01*
X46273333Y-46771430D02*
X46373333Y-46733335D01*
X46373333Y-46733335D02*
X46440000Y-46733335D01*
X46440000Y-46733335D02*
X46540000Y-46771430D01*
X46540000Y-46771430D02*
X46573333Y-46809525D01*
X46973333Y-47076192D02*
X46906667Y-47038097D01*
X46906667Y-47038097D02*
X46873333Y-47000001D01*
X46873333Y-47000001D02*
X46840000Y-46923811D01*
X46840000Y-46923811D02*
X46840000Y-46885716D01*
X46840000Y-46885716D02*
X46873333Y-46809525D01*
X46873333Y-46809525D02*
X46906667Y-46771430D01*
X46906667Y-46771430D02*
X46973333Y-46733335D01*
X46973333Y-46733335D02*
X47106667Y-46733335D01*
X47106667Y-46733335D02*
X47173333Y-46771430D01*
X47173333Y-46771430D02*
X47206667Y-46809525D01*
X47206667Y-46809525D02*
X47240000Y-46885716D01*
X47240000Y-46885716D02*
X47240000Y-46923811D01*
X47240000Y-46923811D02*
X47206667Y-47000001D01*
X47206667Y-47000001D02*
X47173333Y-47038097D01*
X47173333Y-47038097D02*
X47106667Y-47076192D01*
X47106667Y-47076192D02*
X46973333Y-47076192D01*
X46973333Y-47076192D02*
X46906667Y-47114287D01*
X46906667Y-47114287D02*
X46873333Y-47152382D01*
X46873333Y-47152382D02*
X46840000Y-47228573D01*
X46840000Y-47228573D02*
X46840000Y-47380954D01*
X46840000Y-47380954D02*
X46873333Y-47457144D01*
X46873333Y-47457144D02*
X46906667Y-47495240D01*
X46906667Y-47495240D02*
X46973333Y-47533335D01*
X46973333Y-47533335D02*
X47106667Y-47533335D01*
X47106667Y-47533335D02*
X47173333Y-47495240D01*
X47173333Y-47495240D02*
X47206667Y-47457144D01*
X47206667Y-47457144D02*
X47240000Y-47380954D01*
X47240000Y-47380954D02*
X47240000Y-47228573D01*
X47240000Y-47228573D02*
X47206667Y-47152382D01*
X47206667Y-47152382D02*
X47173333Y-47114287D01*
X47173333Y-47114287D02*
X47106667Y-47076192D01*
X36216666Y-50803335D02*
X36216666Y-51450954D01*
X36216666Y-51450954D02*
X36250000Y-51527144D01*
X36250000Y-51527144D02*
X36283333Y-51565240D01*
X36283333Y-51565240D02*
X36350000Y-51603335D01*
X36350000Y-51603335D02*
X36483333Y-51603335D01*
X36483333Y-51603335D02*
X36550000Y-51565240D01*
X36550000Y-51565240D02*
X36583333Y-51527144D01*
X36583333Y-51527144D02*
X36616666Y-51450954D01*
X36616666Y-51450954D02*
X36616666Y-50803335D01*
X36916666Y-50879525D02*
X36949999Y-50841430D01*
X36949999Y-50841430D02*
X37016666Y-50803335D01*
X37016666Y-50803335D02*
X37183333Y-50803335D01*
X37183333Y-50803335D02*
X37249999Y-50841430D01*
X37249999Y-50841430D02*
X37283333Y-50879525D01*
X37283333Y-50879525D02*
X37316666Y-50955716D01*
X37316666Y-50955716D02*
X37316666Y-51031906D01*
X37316666Y-51031906D02*
X37283333Y-51146192D01*
X37283333Y-51146192D02*
X36883333Y-51603335D01*
X36883333Y-51603335D02*
X37316666Y-51603335D01*
X35493335Y-40546666D02*
X35112382Y-40779999D01*
X35493335Y-40946666D02*
X34693335Y-40946666D01*
X34693335Y-40946666D02*
X34693335Y-40679999D01*
X34693335Y-40679999D02*
X34731430Y-40613333D01*
X34731430Y-40613333D02*
X34769525Y-40579999D01*
X34769525Y-40579999D02*
X34845716Y-40546666D01*
X34845716Y-40546666D02*
X34960001Y-40546666D01*
X34960001Y-40546666D02*
X35036192Y-40579999D01*
X35036192Y-40579999D02*
X35074287Y-40613333D01*
X35074287Y-40613333D02*
X35112382Y-40679999D01*
X35112382Y-40679999D02*
X35112382Y-40946666D01*
X35493335Y-39879999D02*
X35493335Y-40279999D01*
X35493335Y-40079999D02*
X34693335Y-40079999D01*
X34693335Y-40079999D02*
X34807620Y-40146666D01*
X34807620Y-40146666D02*
X34883811Y-40213333D01*
X34883811Y-40213333D02*
X34921906Y-40279999D01*
X31693333Y-42667144D02*
X31660000Y-42705240D01*
X31660000Y-42705240D02*
X31560000Y-42743335D01*
X31560000Y-42743335D02*
X31493333Y-42743335D01*
X31493333Y-42743335D02*
X31393333Y-42705240D01*
X31393333Y-42705240D02*
X31326667Y-42629049D01*
X31326667Y-42629049D02*
X31293333Y-42552859D01*
X31293333Y-42552859D02*
X31260000Y-42400478D01*
X31260000Y-42400478D02*
X31260000Y-42286192D01*
X31260000Y-42286192D02*
X31293333Y-42133811D01*
X31293333Y-42133811D02*
X31326667Y-42057620D01*
X31326667Y-42057620D02*
X31393333Y-41981430D01*
X31393333Y-41981430D02*
X31493333Y-41943335D01*
X31493333Y-41943335D02*
X31560000Y-41943335D01*
X31560000Y-41943335D02*
X31660000Y-41981430D01*
X31660000Y-41981430D02*
X31693333Y-42019525D01*
X32360000Y-42743335D02*
X31960000Y-42743335D01*
X32160000Y-42743335D02*
X32160000Y-41943335D01*
X32160000Y-41943335D02*
X32093333Y-42057620D01*
X32093333Y-42057620D02*
X32026667Y-42133811D01*
X32026667Y-42133811D02*
X31960000Y-42171906D01*
X54296666Y-47805240D02*
X54396666Y-47843335D01*
X54396666Y-47843335D02*
X54563333Y-47843335D01*
X54563333Y-47843335D02*
X54629999Y-47805240D01*
X54629999Y-47805240D02*
X54663333Y-47767144D01*
X54663333Y-47767144D02*
X54696666Y-47690954D01*
X54696666Y-47690954D02*
X54696666Y-47614763D01*
X54696666Y-47614763D02*
X54663333Y-47538573D01*
X54663333Y-47538573D02*
X54629999Y-47500478D01*
X54629999Y-47500478D02*
X54563333Y-47462382D01*
X54563333Y-47462382D02*
X54429999Y-47424287D01*
X54429999Y-47424287D02*
X54363333Y-47386192D01*
X54363333Y-47386192D02*
X54329999Y-47348097D01*
X54329999Y-47348097D02*
X54296666Y-47271906D01*
X54296666Y-47271906D02*
X54296666Y-47195716D01*
X54296666Y-47195716D02*
X54329999Y-47119525D01*
X54329999Y-47119525D02*
X54363333Y-47081430D01*
X54363333Y-47081430D02*
X54429999Y-47043335D01*
X54429999Y-47043335D02*
X54596666Y-47043335D01*
X54596666Y-47043335D02*
X54696666Y-47081430D01*
X54930000Y-47043335D02*
X55096666Y-47843335D01*
X55096666Y-47843335D02*
X55230000Y-47271906D01*
X55230000Y-47271906D02*
X55363333Y-47843335D01*
X55363333Y-47843335D02*
X55530000Y-47043335D01*
X56163333Y-47843335D02*
X55763333Y-47843335D01*
X55963333Y-47843335D02*
X55963333Y-47043335D01*
X55963333Y-47043335D02*
X55896666Y-47157620D01*
X55896666Y-47157620D02*
X55830000Y-47233811D01*
X55830000Y-47233811D02*
X55763333Y-47271906D01*
X45257144Y-41500000D02*
X45295240Y-41533333D01*
X45295240Y-41533333D02*
X45333335Y-41633333D01*
X45333335Y-41633333D02*
X45333335Y-41700000D01*
X45333335Y-41700000D02*
X45295240Y-41800000D01*
X45295240Y-41800000D02*
X45219049Y-41866667D01*
X45219049Y-41866667D02*
X45142859Y-41900000D01*
X45142859Y-41900000D02*
X44990478Y-41933333D01*
X44990478Y-41933333D02*
X44876192Y-41933333D01*
X44876192Y-41933333D02*
X44723811Y-41900000D01*
X44723811Y-41900000D02*
X44647620Y-41866667D01*
X44647620Y-41866667D02*
X44571430Y-41800000D01*
X44571430Y-41800000D02*
X44533335Y-41700000D01*
X44533335Y-41700000D02*
X44533335Y-41633333D01*
X44533335Y-41633333D02*
X44571430Y-41533333D01*
X44571430Y-41533333D02*
X44609525Y-41500000D01*
X45333335Y-40833333D02*
X45333335Y-41233333D01*
X45333335Y-41033333D02*
X44533335Y-41033333D01*
X44533335Y-41033333D02*
X44647620Y-41100000D01*
X44647620Y-41100000D02*
X44723811Y-41166667D01*
X44723811Y-41166667D02*
X44761906Y-41233333D01*
X44533335Y-40400000D02*
X44533335Y-40333333D01*
X44533335Y-40333333D02*
X44571430Y-40266666D01*
X44571430Y-40266666D02*
X44609525Y-40233333D01*
X44609525Y-40233333D02*
X44685716Y-40200000D01*
X44685716Y-40200000D02*
X44838097Y-40166666D01*
X44838097Y-40166666D02*
X45028573Y-40166666D01*
X45028573Y-40166666D02*
X45180954Y-40200000D01*
X45180954Y-40200000D02*
X45257144Y-40233333D01*
X45257144Y-40233333D02*
X45295240Y-40266666D01*
X45295240Y-40266666D02*
X45333335Y-40333333D01*
X45333335Y-40333333D02*
X45333335Y-40400000D01*
X45333335Y-40400000D02*
X45295240Y-40466666D01*
X45295240Y-40466666D02*
X45257144Y-40500000D01*
X45257144Y-40500000D02*
X45180954Y-40533333D01*
X45180954Y-40533333D02*
X45028573Y-40566666D01*
X45028573Y-40566666D02*
X44838097Y-40566666D01*
X44838097Y-40566666D02*
X44685716Y-40533333D01*
X44685716Y-40533333D02*
X44609525Y-40500000D01*
X44609525Y-40500000D02*
X44571430Y-40466666D01*
X44571430Y-40466666D02*
X44533335Y-40400000D01*
X50179999Y-51027144D02*
X50146666Y-51065240D01*
X50146666Y-51065240D02*
X50046666Y-51103335D01*
X50046666Y-51103335D02*
X49979999Y-51103335D01*
X49979999Y-51103335D02*
X49879999Y-51065240D01*
X49879999Y-51065240D02*
X49813333Y-50989049D01*
X49813333Y-50989049D02*
X49779999Y-50912859D01*
X49779999Y-50912859D02*
X49746666Y-50760478D01*
X49746666Y-50760478D02*
X49746666Y-50646192D01*
X49746666Y-50646192D02*
X49779999Y-50493811D01*
X49779999Y-50493811D02*
X49813333Y-50417620D01*
X49813333Y-50417620D02*
X49879999Y-50341430D01*
X49879999Y-50341430D02*
X49979999Y-50303335D01*
X49979999Y-50303335D02*
X50046666Y-50303335D01*
X50046666Y-50303335D02*
X50146666Y-50341430D01*
X50146666Y-50341430D02*
X50179999Y-50379525D01*
X50846666Y-51103335D02*
X50446666Y-51103335D01*
X50646666Y-51103335D02*
X50646666Y-50303335D01*
X50646666Y-50303335D02*
X50579999Y-50417620D01*
X50579999Y-50417620D02*
X50513333Y-50493811D01*
X50513333Y-50493811D02*
X50446666Y-50531906D01*
X51113333Y-50379525D02*
X51146666Y-50341430D01*
X51146666Y-50341430D02*
X51213333Y-50303335D01*
X51213333Y-50303335D02*
X51380000Y-50303335D01*
X51380000Y-50303335D02*
X51446666Y-50341430D01*
X51446666Y-50341430D02*
X51480000Y-50379525D01*
X51480000Y-50379525D02*
X51513333Y-50455716D01*
X51513333Y-50455716D02*
X51513333Y-50531906D01*
X51513333Y-50531906D02*
X51480000Y-50646192D01*
X51480000Y-50646192D02*
X51080000Y-51103335D01*
X51080000Y-51103335D02*
X51513333Y-51103335D01*
X50179999Y-44087144D02*
X50146666Y-44125240D01*
X50146666Y-44125240D02*
X50046666Y-44163335D01*
X50046666Y-44163335D02*
X49979999Y-44163335D01*
X49979999Y-44163335D02*
X49879999Y-44125240D01*
X49879999Y-44125240D02*
X49813333Y-44049049D01*
X49813333Y-44049049D02*
X49779999Y-43972859D01*
X49779999Y-43972859D02*
X49746666Y-43820478D01*
X49746666Y-43820478D02*
X49746666Y-43706192D01*
X49746666Y-43706192D02*
X49779999Y-43553811D01*
X49779999Y-43553811D02*
X49813333Y-43477620D01*
X49813333Y-43477620D02*
X49879999Y-43401430D01*
X49879999Y-43401430D02*
X49979999Y-43363335D01*
X49979999Y-43363335D02*
X50046666Y-43363335D01*
X50046666Y-43363335D02*
X50146666Y-43401430D01*
X50146666Y-43401430D02*
X50179999Y-43439525D01*
X50846666Y-44163335D02*
X50446666Y-44163335D01*
X50646666Y-44163335D02*
X50646666Y-43363335D01*
X50646666Y-43363335D02*
X50579999Y-43477620D01*
X50579999Y-43477620D02*
X50513333Y-43553811D01*
X50513333Y-43553811D02*
X50446666Y-43591906D01*
X51080000Y-43363335D02*
X51513333Y-43363335D01*
X51513333Y-43363335D02*
X51280000Y-43668097D01*
X51280000Y-43668097D02*
X51380000Y-43668097D01*
X51380000Y-43668097D02*
X51446666Y-43706192D01*
X51446666Y-43706192D02*
X51480000Y-43744287D01*
X51480000Y-43744287D02*
X51513333Y-43820478D01*
X51513333Y-43820478D02*
X51513333Y-44010954D01*
X51513333Y-44010954D02*
X51480000Y-44087144D01*
X51480000Y-44087144D02*
X51446666Y-44125240D01*
X51446666Y-44125240D02*
X51380000Y-44163335D01*
X51380000Y-44163335D02*
X51180000Y-44163335D01*
X51180000Y-44163335D02*
X51113333Y-44125240D01*
X51113333Y-44125240D02*
X51080000Y-44087144D01*
X41483335Y-37626666D02*
X41102382Y-37859999D01*
X41483335Y-38026666D02*
X40683335Y-38026666D01*
X40683335Y-38026666D02*
X40683335Y-37759999D01*
X40683335Y-37759999D02*
X40721430Y-37693333D01*
X40721430Y-37693333D02*
X40759525Y-37659999D01*
X40759525Y-37659999D02*
X40835716Y-37626666D01*
X40835716Y-37626666D02*
X40950001Y-37626666D01*
X40950001Y-37626666D02*
X41026192Y-37659999D01*
X41026192Y-37659999D02*
X41064287Y-37693333D01*
X41064287Y-37693333D02*
X41102382Y-37759999D01*
X41102382Y-37759999D02*
X41102382Y-38026666D01*
X40950001Y-37026666D02*
X41483335Y-37026666D01*
X40645240Y-37193333D02*
X41216668Y-37359999D01*
X41216668Y-37359999D02*
X41216668Y-36926666D01*
X49486667Y-42064287D02*
X49253333Y-42064287D01*
X49253333Y-42483335D02*
X49253333Y-41683335D01*
X49253333Y-41683335D02*
X49586667Y-41683335D01*
X50086667Y-42064287D02*
X50186667Y-42102382D01*
X50186667Y-42102382D02*
X50220000Y-42140478D01*
X50220000Y-42140478D02*
X50253333Y-42216668D01*
X50253333Y-42216668D02*
X50253333Y-42330954D01*
X50253333Y-42330954D02*
X50220000Y-42407144D01*
X50220000Y-42407144D02*
X50186667Y-42445240D01*
X50186667Y-42445240D02*
X50120000Y-42483335D01*
X50120000Y-42483335D02*
X49853333Y-42483335D01*
X49853333Y-42483335D02*
X49853333Y-41683335D01*
X49853333Y-41683335D02*
X50086667Y-41683335D01*
X50086667Y-41683335D02*
X50153333Y-41721430D01*
X50153333Y-41721430D02*
X50186667Y-41759525D01*
X50186667Y-41759525D02*
X50220000Y-41835716D01*
X50220000Y-41835716D02*
X50220000Y-41911906D01*
X50220000Y-41911906D02*
X50186667Y-41988097D01*
X50186667Y-41988097D02*
X50153333Y-42026192D01*
X50153333Y-42026192D02*
X50086667Y-42064287D01*
X50086667Y-42064287D02*
X49853333Y-42064287D01*
X50920000Y-42483335D02*
X50520000Y-42483335D01*
X50720000Y-42483335D02*
X50720000Y-41683335D01*
X50720000Y-41683335D02*
X50653333Y-41797620D01*
X50653333Y-41797620D02*
X50586667Y-41873811D01*
X50586667Y-41873811D02*
X50520000Y-41911906D01*
X41243333Y-55663335D02*
X41010000Y-55282382D01*
X40843333Y-55663335D02*
X40843333Y-54863335D01*
X40843333Y-54863335D02*
X41110000Y-54863335D01*
X41110000Y-54863335D02*
X41176667Y-54901430D01*
X41176667Y-54901430D02*
X41210000Y-54939525D01*
X41210000Y-54939525D02*
X41243333Y-55015716D01*
X41243333Y-55015716D02*
X41243333Y-55130001D01*
X41243333Y-55130001D02*
X41210000Y-55206192D01*
X41210000Y-55206192D02*
X41176667Y-55244287D01*
X41176667Y-55244287D02*
X41110000Y-55282382D01*
X41110000Y-55282382D02*
X40843333Y-55282382D01*
X41510000Y-54939525D02*
X41543333Y-54901430D01*
X41543333Y-54901430D02*
X41610000Y-54863335D01*
X41610000Y-54863335D02*
X41776667Y-54863335D01*
X41776667Y-54863335D02*
X41843333Y-54901430D01*
X41843333Y-54901430D02*
X41876667Y-54939525D01*
X41876667Y-54939525D02*
X41910000Y-55015716D01*
X41910000Y-55015716D02*
X41910000Y-55091906D01*
X41910000Y-55091906D02*
X41876667Y-55206192D01*
X41876667Y-55206192D02*
X41476667Y-55663335D01*
X41476667Y-55663335D02*
X41910000Y-55663335D01*
X37883333Y-40137144D02*
X37850000Y-40175240D01*
X37850000Y-40175240D02*
X37750000Y-40213335D01*
X37750000Y-40213335D02*
X37683333Y-40213335D01*
X37683333Y-40213335D02*
X37583333Y-40175240D01*
X37583333Y-40175240D02*
X37516667Y-40099049D01*
X37516667Y-40099049D02*
X37483333Y-40022859D01*
X37483333Y-40022859D02*
X37450000Y-39870478D01*
X37450000Y-39870478D02*
X37450000Y-39756192D01*
X37450000Y-39756192D02*
X37483333Y-39603811D01*
X37483333Y-39603811D02*
X37516667Y-39527620D01*
X37516667Y-39527620D02*
X37583333Y-39451430D01*
X37583333Y-39451430D02*
X37683333Y-39413335D01*
X37683333Y-39413335D02*
X37750000Y-39413335D01*
X37750000Y-39413335D02*
X37850000Y-39451430D01*
X37850000Y-39451430D02*
X37883333Y-39489525D01*
X38516667Y-39413335D02*
X38183333Y-39413335D01*
X38183333Y-39413335D02*
X38150000Y-39794287D01*
X38150000Y-39794287D02*
X38183333Y-39756192D01*
X38183333Y-39756192D02*
X38250000Y-39718097D01*
X38250000Y-39718097D02*
X38416667Y-39718097D01*
X38416667Y-39718097D02*
X38483333Y-39756192D01*
X38483333Y-39756192D02*
X38516667Y-39794287D01*
X38516667Y-39794287D02*
X38550000Y-39870478D01*
X38550000Y-39870478D02*
X38550000Y-40060954D01*
X38550000Y-40060954D02*
X38516667Y-40137144D01*
X38516667Y-40137144D02*
X38483333Y-40175240D01*
X38483333Y-40175240D02*
X38416667Y-40213335D01*
X38416667Y-40213335D02*
X38250000Y-40213335D01*
X38250000Y-40213335D02*
X38183333Y-40175240D01*
X38183333Y-40175240D02*
X38150000Y-40137144D01*
X40293335Y-37626666D02*
X39912382Y-37859999D01*
X40293335Y-38026666D02*
X39493335Y-38026666D01*
X39493335Y-38026666D02*
X39493335Y-37759999D01*
X39493335Y-37759999D02*
X39531430Y-37693333D01*
X39531430Y-37693333D02*
X39569525Y-37659999D01*
X39569525Y-37659999D02*
X39645716Y-37626666D01*
X39645716Y-37626666D02*
X39760001Y-37626666D01*
X39760001Y-37626666D02*
X39836192Y-37659999D01*
X39836192Y-37659999D02*
X39874287Y-37693333D01*
X39874287Y-37693333D02*
X39912382Y-37759999D01*
X39912382Y-37759999D02*
X39912382Y-38026666D01*
X39493335Y-36993333D02*
X39493335Y-37326666D01*
X39493335Y-37326666D02*
X39874287Y-37359999D01*
X39874287Y-37359999D02*
X39836192Y-37326666D01*
X39836192Y-37326666D02*
X39798097Y-37259999D01*
X39798097Y-37259999D02*
X39798097Y-37093333D01*
X39798097Y-37093333D02*
X39836192Y-37026666D01*
X39836192Y-37026666D02*
X39874287Y-36993333D01*
X39874287Y-36993333D02*
X39950478Y-36959999D01*
X39950478Y-36959999D02*
X40140954Y-36959999D01*
X40140954Y-36959999D02*
X40217144Y-36993333D01*
X40217144Y-36993333D02*
X40255240Y-37026666D01*
X40255240Y-37026666D02*
X40293335Y-37093333D01*
X40293335Y-37093333D02*
X40293335Y-37259999D01*
X40293335Y-37259999D02*
X40255240Y-37326666D01*
X40255240Y-37326666D02*
X40217144Y-37359999D01*
X52486667Y-45942382D02*
X52486667Y-46323335D01*
X52253333Y-45523335D02*
X52486667Y-45942382D01*
X52486667Y-45942382D02*
X52720000Y-45523335D01*
X52920000Y-45599525D02*
X52953333Y-45561430D01*
X52953333Y-45561430D02*
X53020000Y-45523335D01*
X53020000Y-45523335D02*
X53186667Y-45523335D01*
X53186667Y-45523335D02*
X53253333Y-45561430D01*
X53253333Y-45561430D02*
X53286667Y-45599525D01*
X53286667Y-45599525D02*
X53320000Y-45675716D01*
X53320000Y-45675716D02*
X53320000Y-45751906D01*
X53320000Y-45751906D02*
X53286667Y-45866192D01*
X53286667Y-45866192D02*
X52886667Y-46323335D01*
X52886667Y-46323335D02*
X53320000Y-46323335D01*
X45323333Y-52997144D02*
X45290000Y-53035240D01*
X45290000Y-53035240D02*
X45190000Y-53073335D01*
X45190000Y-53073335D02*
X45123333Y-53073335D01*
X45123333Y-53073335D02*
X45023333Y-53035240D01*
X45023333Y-53035240D02*
X44956667Y-52959049D01*
X44956667Y-52959049D02*
X44923333Y-52882859D01*
X44923333Y-52882859D02*
X44890000Y-52730478D01*
X44890000Y-52730478D02*
X44890000Y-52616192D01*
X44890000Y-52616192D02*
X44923333Y-52463811D01*
X44923333Y-52463811D02*
X44956667Y-52387620D01*
X44956667Y-52387620D02*
X45023333Y-52311430D01*
X45023333Y-52311430D02*
X45123333Y-52273335D01*
X45123333Y-52273335D02*
X45190000Y-52273335D01*
X45190000Y-52273335D02*
X45290000Y-52311430D01*
X45290000Y-52311430D02*
X45323333Y-52349525D01*
X45556667Y-52273335D02*
X46023333Y-52273335D01*
X46023333Y-52273335D02*
X45723333Y-53073335D01*
X45863333Y-54837144D02*
X45830000Y-54875240D01*
X45830000Y-54875240D02*
X45730000Y-54913335D01*
X45730000Y-54913335D02*
X45663333Y-54913335D01*
X45663333Y-54913335D02*
X45563333Y-54875240D01*
X45563333Y-54875240D02*
X45496667Y-54799049D01*
X45496667Y-54799049D02*
X45463333Y-54722859D01*
X45463333Y-54722859D02*
X45430000Y-54570478D01*
X45430000Y-54570478D02*
X45430000Y-54456192D01*
X45430000Y-54456192D02*
X45463333Y-54303811D01*
X45463333Y-54303811D02*
X45496667Y-54227620D01*
X45496667Y-54227620D02*
X45563333Y-54151430D01*
X45563333Y-54151430D02*
X45663333Y-54113335D01*
X45663333Y-54113335D02*
X45730000Y-54113335D01*
X45730000Y-54113335D02*
X45830000Y-54151430D01*
X45830000Y-54151430D02*
X45863333Y-54189525D01*
X46096667Y-54113335D02*
X46530000Y-54113335D01*
X46530000Y-54113335D02*
X46296667Y-54418097D01*
X46296667Y-54418097D02*
X46396667Y-54418097D01*
X46396667Y-54418097D02*
X46463333Y-54456192D01*
X46463333Y-54456192D02*
X46496667Y-54494287D01*
X46496667Y-54494287D02*
X46530000Y-54570478D01*
X46530000Y-54570478D02*
X46530000Y-54760954D01*
X46530000Y-54760954D02*
X46496667Y-54837144D01*
X46496667Y-54837144D02*
X46463333Y-54875240D01*
X46463333Y-54875240D02*
X46396667Y-54913335D01*
X46396667Y-54913335D02*
X46196667Y-54913335D01*
X46196667Y-54913335D02*
X46130000Y-54875240D01*
X46130000Y-54875240D02*
X46096667Y-54837144D01*
X38333333Y-34957144D02*
X38300000Y-34995240D01*
X38300000Y-34995240D02*
X38200000Y-35033335D01*
X38200000Y-35033335D02*
X38133333Y-35033335D01*
X38133333Y-35033335D02*
X38033333Y-34995240D01*
X38033333Y-34995240D02*
X37966667Y-34919049D01*
X37966667Y-34919049D02*
X37933333Y-34842859D01*
X37933333Y-34842859D02*
X37900000Y-34690478D01*
X37900000Y-34690478D02*
X37900000Y-34576192D01*
X37900000Y-34576192D02*
X37933333Y-34423811D01*
X37933333Y-34423811D02*
X37966667Y-34347620D01*
X37966667Y-34347620D02*
X38033333Y-34271430D01*
X38033333Y-34271430D02*
X38133333Y-34233335D01*
X38133333Y-34233335D02*
X38200000Y-34233335D01*
X38200000Y-34233335D02*
X38300000Y-34271430D01*
X38300000Y-34271430D02*
X38333333Y-34309525D01*
X38600000Y-34309525D02*
X38633333Y-34271430D01*
X38633333Y-34271430D02*
X38700000Y-34233335D01*
X38700000Y-34233335D02*
X38866667Y-34233335D01*
X38866667Y-34233335D02*
X38933333Y-34271430D01*
X38933333Y-34271430D02*
X38966667Y-34309525D01*
X38966667Y-34309525D02*
X39000000Y-34385716D01*
X39000000Y-34385716D02*
X39000000Y-34461906D01*
X39000000Y-34461906D02*
X38966667Y-34576192D01*
X38966667Y-34576192D02*
X38566667Y-35033335D01*
X38566667Y-35033335D02*
X39000000Y-35033335D01*
X32793335Y-48866666D02*
X32412382Y-49099999D01*
X32793335Y-49266666D02*
X31993335Y-49266666D01*
X31993335Y-49266666D02*
X31993335Y-48999999D01*
X31993335Y-48999999D02*
X32031430Y-48933333D01*
X32031430Y-48933333D02*
X32069525Y-48899999D01*
X32069525Y-48899999D02*
X32145716Y-48866666D01*
X32145716Y-48866666D02*
X32260001Y-48866666D01*
X32260001Y-48866666D02*
X32336192Y-48899999D01*
X32336192Y-48899999D02*
X32374287Y-48933333D01*
X32374287Y-48933333D02*
X32412382Y-48999999D01*
X32412382Y-48999999D02*
X32412382Y-49266666D01*
X31993335Y-48633333D02*
X31993335Y-48199999D01*
X31993335Y-48199999D02*
X32298097Y-48433333D01*
X32298097Y-48433333D02*
X32298097Y-48333333D01*
X32298097Y-48333333D02*
X32336192Y-48266666D01*
X32336192Y-48266666D02*
X32374287Y-48233333D01*
X32374287Y-48233333D02*
X32450478Y-48199999D01*
X32450478Y-48199999D02*
X32640954Y-48199999D01*
X32640954Y-48199999D02*
X32717144Y-48233333D01*
X32717144Y-48233333D02*
X32755240Y-48266666D01*
X32755240Y-48266666D02*
X32793335Y-48333333D01*
X32793335Y-48333333D02*
X32793335Y-48533333D01*
X32793335Y-48533333D02*
X32755240Y-48599999D01*
X32755240Y-48599999D02*
X32717144Y-48633333D01*
%TO.C,J1*%
D14*
X28825000Y-47025000D02*
X28825000Y-46300000D01*
X28825000Y-46300000D02*
X28400000Y-46300000D01*
X28400000Y-49900000D02*
X28400000Y-50900000D01*
X28400000Y-46300000D02*
X28400000Y-45300000D01*
X26650000Y-43950000D02*
X25250000Y-43950000D01*
X25250000Y-52250000D02*
X26650000Y-52250000D01*
X22850000Y-43950000D02*
X22700000Y-43950000D01*
X22700000Y-52250000D02*
X22850000Y-52250000D01*
X22700000Y-51950000D02*
X22700000Y-52250000D01*
X22700000Y-44250000D02*
X22250000Y-44250000D01*
X22700000Y-43950000D02*
X22700000Y-44250000D01*
X22250000Y-51950000D02*
X22700000Y-51950000D01*
%TO.C,U1*%
X28340000Y-35150000D02*
X28340000Y-38910000D01*
X28340000Y-38910000D02*
X29600000Y-38910000D01*
X35160000Y-35150000D02*
X35160000Y-38910000D01*
X35160000Y-38910000D02*
X33900000Y-38910000D01*
X35390000Y-34110000D02*
X35060000Y-33870000D01*
X35390000Y-33630000D01*
X35390000Y-34110000D01*
G36*
X35390000Y-34110000D02*
G01*
X35060000Y-33870000D01*
X35390000Y-33630000D01*
X35390000Y-34110000D01*
G37*
%TO.C,C9*%
X46340000Y-43607836D02*
X46340000Y-43392164D01*
X47060000Y-43607836D02*
X47060000Y-43392164D01*
%TO.C,C6*%
X34540000Y-50107836D02*
X34540000Y-49892164D01*
X35260000Y-50107836D02*
X35260000Y-49892164D01*
%TO.C,C11*%
X50482164Y-39870000D02*
X50697836Y-39870000D01*
X50482164Y-40590000D02*
X50697836Y-40590000D01*
%TO.C,C4*%
X47110000Y-49892164D02*
X47110000Y-50107836D01*
X46390000Y-49892164D02*
X46390000Y-50107836D01*
%TO.C,D1*%
X36015000Y-36950000D02*
X36015000Y-39235000D01*
X36015000Y-39235000D02*
X37485000Y-39235000D01*
X37485000Y-39235000D02*
X37485000Y-36950000D01*
%TO.C,C8*%
X46340000Y-45592164D02*
X46340000Y-45807836D01*
X47060000Y-45592164D02*
X47060000Y-45807836D01*
%TO.C,U2*%
X37140000Y-43140000D02*
X37590000Y-43140000D01*
X37140000Y-43590000D02*
X37140000Y-43140000D01*
X37140000Y-50360000D02*
X37140000Y-49910000D01*
X37590000Y-50360000D02*
X37140000Y-50360000D01*
X43910000Y-43140000D02*
X44360000Y-43140000D01*
X44360000Y-43140000D02*
X44360000Y-43590000D01*
X44360000Y-49910000D02*
X44360000Y-50360000D01*
X44360000Y-50360000D02*
X43910000Y-50360000D01*
X45340000Y-50380000D02*
X44660000Y-50380000D01*
X45000000Y-49910000D01*
X45340000Y-50380000D01*
G36*
X45340000Y-50380000D02*
G01*
X44660000Y-50380000D01*
X45000000Y-49910000D01*
X45340000Y-50380000D01*
G37*
%TO.C,R1*%
X36480000Y-40246359D02*
X36480000Y-40553641D01*
X35720000Y-40246359D02*
X35720000Y-40553641D01*
%TO.C,J2*%
X28820000Y-61880000D02*
X28820000Y-60500000D01*
X30200000Y-61880000D02*
X28820000Y-61880000D01*
X31470000Y-59120000D02*
X39200000Y-59120000D01*
X31470000Y-61880000D02*
X31470000Y-59120000D01*
X31470000Y-61880000D02*
X39200000Y-61880000D01*
X39200000Y-61880000D02*
X39200000Y-59120000D01*
%TO.C,C1*%
X31588748Y-44765000D02*
X32111252Y-44765000D01*
X31588748Y-43295000D02*
X32111252Y-43295000D01*
%TO.C,SW1*%
X54080000Y-51100000D02*
X54080000Y-50900000D01*
X54080000Y-54100000D02*
X54080000Y-52400000D01*
X55130000Y-55950000D02*
X55920000Y-55950000D01*
X55920000Y-49050000D02*
X55130000Y-49050000D01*
X56930000Y-55350000D02*
X56930000Y-49650000D01*
%TO.C,C10*%
X46457836Y-41590000D02*
X46242164Y-41590000D01*
X46457836Y-42310000D02*
X46242164Y-42310000D01*
%TO.C,C12*%
X50522164Y-49380000D02*
X50737836Y-49380000D01*
X50522164Y-50100000D02*
X50737836Y-50100000D01*
%TO.C,C13*%
X50522164Y-44440000D02*
X50737836Y-44440000D01*
X50522164Y-45160000D02*
X50737836Y-45160000D01*
%TO.C,R4*%
X40720000Y-39046359D02*
X40720000Y-39353641D01*
X41480000Y-39046359D02*
X41480000Y-39353641D01*
%TO.C,FB1*%
X47840000Y-43362779D02*
X47840000Y-43037221D01*
X48860000Y-43362779D02*
X48860000Y-43037221D01*
%TO.C,R2*%
X41120000Y-53853641D02*
X41120000Y-53546359D01*
X41880000Y-53853641D02*
X41880000Y-53546359D01*
%TO.C,C5*%
X37792164Y-40440000D02*
X38007836Y-40440000D01*
X37792164Y-41160000D02*
X38007836Y-41160000D01*
%TO.C,R5*%
X39520000Y-39046359D02*
X39520000Y-39353641D01*
X40280000Y-39046359D02*
X40280000Y-39353641D01*
%TO.C,Y2*%
X47940000Y-45540000D02*
X47940000Y-48960000D01*
X47940000Y-48960000D02*
X52060000Y-48960000D01*
%TO.C,C7*%
X43907836Y-52340000D02*
X43692164Y-52340000D01*
X43907836Y-53060000D02*
X43692164Y-53060000D01*
%TO.C,J4*%
X40410000Y-32920000D02*
X40410000Y-35680000D01*
X48140000Y-32920000D02*
X40410000Y-32920000D01*
X48140000Y-32920000D02*
X48140000Y-35680000D01*
X48140000Y-35680000D02*
X40410000Y-35680000D01*
X49410000Y-32920000D02*
X50790000Y-32920000D01*
X50790000Y-32920000D02*
X50790000Y-34300000D01*
%TO.C,C3*%
X43940580Y-53690000D02*
X43659420Y-53690000D01*
X43940580Y-54710000D02*
X43659420Y-54710000D01*
%TO.C,C2*%
X36015000Y-34511252D02*
X36015000Y-33988748D01*
X37485000Y-34511252D02*
X37485000Y-33988748D01*
%TO.C,R3*%
X33220000Y-48903641D02*
X33220000Y-48596359D01*
X33980000Y-48903641D02*
X33980000Y-48596359D01*
%TO.C,J3*%
X40840000Y-61880000D02*
X40840000Y-60500000D01*
X42220000Y-61880000D02*
X40840000Y-61880000D01*
X43490000Y-59120000D02*
X51220000Y-59120000D01*
X43490000Y-61880000D02*
X43490000Y-59120000D01*
X43490000Y-61880000D02*
X51220000Y-61880000D01*
X51220000Y-61880000D02*
X51220000Y-59120000D01*
%TD*%
M02*
