%TF.GenerationSoftware,KiCad,Pcbnew,10.0.0*%
%TF.CreationDate,2026-04-13T22:00:40+05:30*%
%TF.ProjectId,Udemy_philslab_stm32,5564656d-795f-4706-9869-6c736c61625f,rev?*%
%TF.SameCoordinates,Original*%
%TF.FileFunction,Soldermask,Top*%
%TF.FilePolarity,Negative*%
%FSLAX46Y46*%
G04 Gerber Fmt 4.6, Leading zero omitted, Abs format (unit mm)*
G04 Created by KiCad (PCBNEW 10.0.0) date 2026-04-13 22:00:40*
%MOMM*%
%LPD*%
G01*
G04 APERTURE LIST*
G04 Aperture macros list*
%AMRoundRect*
0 Rectangle with rounded corners*
0 $1 Rounding radius*
0 $2 $3 $4 $5 $6 $7 $8 $9 X,Y pos of 4 corners*
0 Add a 4 corners polygon primitive as box body*
4,1,4,$2,$3,$4,$5,$6,$7,$8,$9,$2,$3,0*
0 Add four circle primitives for the rounded corners*
1,1,$1+$1,$2,$3*
1,1,$1+$1,$4,$5*
1,1,$1+$1,$6,$7*
1,1,$1+$1,$8,$9*
0 Add four rect primitives between the rounded corners*
20,1,$1+$1,$2,$3,$4,$5,0*
20,1,$1+$1,$4,$5,$6,$7,0*
20,1,$1+$1,$6,$7,$8,$9,0*
20,1,$1+$1,$8,$9,$2,$3,0*%
G04 Aperture macros list end*
%ADD10O,1.800000X1.150000*%
%ADD11O,2.000000X1.450000*%
%ADD12RoundRect,0.112500X-0.537500X0.112500X-0.537500X-0.112500X0.537500X-0.112500X0.537500X0.112500X0*%
%ADD13O,0.800000X0.800000*%
%ADD14C,2.200000*%
%ADD15RoundRect,0.375000X-0.375000X0.625000X-0.375000X-0.625000X0.375000X-0.625000X0.375000X0.625000X0*%
%ADD16RoundRect,0.500000X-1.400000X0.500000X-1.400000X-0.500000X1.400000X-0.500000X1.400000X0.500000X0*%
%ADD17RoundRect,0.140000X0.170000X-0.140000X0.170000X0.140000X-0.170000X0.140000X-0.170000X-0.140000X0*%
%ADD18RoundRect,0.140000X-0.140000X-0.170000X0.140000X-0.170000X0.140000X0.170000X-0.140000X0.170000X0*%
%ADD19RoundRect,0.140000X-0.170000X0.140000X-0.170000X-0.140000X0.170000X-0.140000X0.170000X0.140000X0*%
%ADD20RoundRect,0.218750X0.256250X-0.218750X0.256250X0.218750X-0.256250X0.218750X-0.256250X-0.218750X0*%
%ADD21RoundRect,0.075000X0.662500X0.075000X-0.662500X0.075000X-0.662500X-0.075000X0.662500X-0.075000X0*%
%ADD22RoundRect,0.075000X0.075000X0.662500X-0.075000X0.662500X-0.075000X-0.662500X0.075000X-0.662500X0*%
%ADD23RoundRect,0.135000X-0.185000X0.135000X-0.185000X-0.135000X0.185000X-0.135000X0.185000X0.135000X0*%
%ADD24R,1.700000X1.700000*%
%ADD25C,1.700000*%
%ADD26RoundRect,0.250000X-0.250000X-0.475000X0.250000X-0.475000X0.250000X0.475000X-0.250000X0.475000X0*%
%ADD27R,0.800000X1.000000*%
%ADD28C,0.900000*%
%ADD29R,1.500000X0.700000*%
%ADD30RoundRect,0.140000X0.140000X0.170000X-0.140000X0.170000X-0.140000X-0.170000X0.140000X-0.170000X0*%
%ADD31RoundRect,0.135000X0.185000X-0.135000X0.185000X0.135000X-0.185000X0.135000X-0.185000X-0.135000X0*%
%ADD32RoundRect,0.250000X-0.450000X-0.350000X0.450000X-0.350000X0.450000X0.350000X-0.450000X0.350000X0*%
%ADD33RoundRect,0.225000X0.225000X0.250000X-0.225000X0.250000X-0.225000X-0.250000X0.225000X-0.250000X0*%
%ADD34RoundRect,0.250000X0.475000X-0.250000X0.475000X0.250000X-0.475000X0.250000X-0.475000X-0.250000X0*%
G04 APERTURE END LIST*
D10*
%TO.C,J1*%
X24050000Y-51975000D03*
D11*
X27850000Y-51825000D03*
X27850000Y-44375000D03*
D10*
X24050000Y-44225000D03*
D12*
X27900000Y-49400000D03*
X27900000Y-48750000D03*
X27900000Y-48100000D03*
X27900000Y-47450000D03*
X27900000Y-46800000D03*
D13*
X26800000Y-50600000D03*
X26800000Y-45600000D03*
%TD*%
D14*
%TO.C,H2*%
X55000000Y-35000000D03*
%TD*%
D15*
%TO.C,U1*%
X34050000Y-33850000D03*
X31750000Y-33850000D03*
D16*
X31750000Y-40150000D03*
D15*
X29450000Y-33850000D03*
%TD*%
D17*
%TO.C,C9*%
X46700000Y-43980000D03*
X46700000Y-43020000D03*
%TD*%
%TO.C,C6*%
X34900000Y-50480000D03*
X34900000Y-49520000D03*
%TD*%
D18*
%TO.C,C11*%
X50110000Y-40230000D03*
X51070000Y-40230000D03*
%TD*%
D19*
%TO.C,C4*%
X46750000Y-49520000D03*
X46750000Y-50480000D03*
%TD*%
D20*
%TO.C,D1*%
X36750000Y-38537500D03*
X36750000Y-36962500D03*
%TD*%
D19*
%TO.C,C8*%
X46700000Y-45220000D03*
X46700000Y-46180000D03*
%TD*%
D21*
%TO.C,U2*%
X44912500Y-49500000D03*
X44912500Y-49000000D03*
X44912500Y-48500000D03*
X44912500Y-48000000D03*
X44912500Y-47500000D03*
X44912500Y-47000000D03*
X44912500Y-46500000D03*
X44912500Y-46000000D03*
X44912500Y-45500000D03*
X44912500Y-45000000D03*
X44912500Y-44500000D03*
X44912500Y-44000000D03*
D22*
X43500000Y-42587500D03*
X43000000Y-42587500D03*
X42500000Y-42587500D03*
X42000000Y-42587500D03*
X41500000Y-42587500D03*
X41000000Y-42587500D03*
X40500000Y-42587500D03*
X40000000Y-42587500D03*
X39500000Y-42587500D03*
X39000000Y-42587500D03*
X38500000Y-42587500D03*
X38000000Y-42587500D03*
D21*
X36587500Y-44000000D03*
X36587500Y-44500000D03*
X36587500Y-45000000D03*
X36587500Y-45500000D03*
X36587500Y-46000000D03*
X36587500Y-46500000D03*
X36587500Y-47000000D03*
X36587500Y-47500000D03*
X36587500Y-48000000D03*
X36587500Y-48500000D03*
X36587500Y-49000000D03*
X36587500Y-49500000D03*
D22*
X38000000Y-50912500D03*
X38500000Y-50912500D03*
X39000000Y-50912500D03*
X39500000Y-50912500D03*
X40000000Y-50912500D03*
X40500000Y-50912500D03*
X41000000Y-50912500D03*
X41500000Y-50912500D03*
X42000000Y-50912500D03*
X42500000Y-50912500D03*
X43000000Y-50912500D03*
X43500000Y-50912500D03*
%TD*%
D23*
%TO.C,R1*%
X36100000Y-39890000D03*
X36100000Y-40910000D03*
%TD*%
D24*
%TO.C,J2*%
X30200000Y-60500000D03*
D25*
X32740000Y-60500000D03*
X35280000Y-60500000D03*
X37820000Y-60500000D03*
%TD*%
D14*
%TO.C,H3*%
X55000000Y-60000000D03*
%TD*%
D26*
%TO.C,C1*%
X30900000Y-44030000D03*
X32800000Y-44030000D03*
%TD*%
D14*
%TO.C,H4*%
X25000000Y-60000000D03*
%TD*%
D27*
%TO.C,SW1*%
X54420000Y-56150000D03*
X56630000Y-56150000D03*
D28*
X55530000Y-54000000D03*
X55530000Y-51000000D03*
D27*
X54420000Y-48850000D03*
X56630000Y-48850000D03*
D29*
X53770000Y-54750000D03*
X53770000Y-51750000D03*
X53770000Y-50250000D03*
%TD*%
D30*
%TO.C,C10*%
X46830000Y-41950000D03*
X45870000Y-41950000D03*
%TD*%
D18*
%TO.C,C12*%
X50150000Y-49740000D03*
X51110000Y-49740000D03*
%TD*%
%TO.C,C13*%
X50150000Y-44800000D03*
X51110000Y-44800000D03*
%TD*%
D23*
%TO.C,R4*%
X41100000Y-38690000D03*
X41100000Y-39710000D03*
%TD*%
D20*
%TO.C,FB1*%
X48350000Y-43987500D03*
X48350000Y-42412500D03*
%TD*%
D31*
%TO.C,R2*%
X41500000Y-54210000D03*
X41500000Y-53190000D03*
%TD*%
D18*
%TO.C,C5*%
X37420000Y-40800000D03*
X38380000Y-40800000D03*
%TD*%
D23*
%TO.C,R5*%
X39900000Y-38690000D03*
X39900000Y-39710000D03*
%TD*%
D14*
%TO.C,H1*%
X25000000Y-35000000D03*
%TD*%
D32*
%TO.C,Y2*%
X48900000Y-48100000D03*
X51100000Y-48100000D03*
X51100000Y-46400000D03*
X48900000Y-46400000D03*
%TD*%
D30*
%TO.C,C7*%
X44280000Y-52700000D03*
X43320000Y-52700000D03*
%TD*%
D24*
%TO.C,J4*%
X49410000Y-34300000D03*
D25*
X46870000Y-34300000D03*
X44330000Y-34300000D03*
X41790000Y-34300000D03*
%TD*%
D33*
%TO.C,C3*%
X44575000Y-54200000D03*
X43025000Y-54200000D03*
%TD*%
D34*
%TO.C,C2*%
X36750000Y-35200000D03*
X36750000Y-33300000D03*
%TD*%
D31*
%TO.C,R3*%
X33600000Y-49260000D03*
X33600000Y-48240000D03*
%TD*%
D24*
%TO.C,J3*%
X42220000Y-60500000D03*
D25*
X44760000Y-60500000D03*
X47300000Y-60500000D03*
X49840000Y-60500000D03*
%TD*%
M02*
