M48
; DRILL file KiCad 10.0.0 date 2026-04-13T23:11:41
; FORMAT={-:-/ absolute / metric / decimal}
; #@! TF.CreationDate,2026-04-13T23:11:41+05:30
; #@! TF.GenerationSoftware,Kicad,Pcbnew,10.0.0
; #@! TF.FileFunction,MixedPlating,1,2
FMAT,2
METRIC
; #@! TA.AperFunction,Plated,PTH,ViaDrill
T1C0.300
; #@! TA.AperFunction,Plated,PTH,ComponentDrill
T2C0.550
; #@! TA.AperFunction,Plated,PTH,ComponentDrill
T3C0.850
; #@! TA.AperFunction,Plated,PTH,ComponentDrill
T4C1.000
; #@! TA.AperFunction,NonPlated,NPTH,ComponentDrill
T5C0.800
; #@! TA.AperFunction,NonPlated,NPTH,ComponentDrill
T6C0.900
; #@! TA.AperFunction,NonPlated,NPTH,ComponentDrill
T7C2.200
%
G90
G05
T1
X30.0Y-49.4
X32.5Y-45.5
X33.3Y-45.75
X33.6Y-35.4
X34.0Y-46.9
X34.0Y-50.23
X34.8Y-35.4
X34.9Y-48.7
X36.1Y-42.0
X38.1Y-33.2
X38.13Y-36.96
X38.5Y-44.14
X38.9Y-33.8
X43.0Y-49.24
X43.1Y-36.96
X43.37Y-45.59
X45.87Y-41.09
X45.9Y-53.7
X46.75Y-51.29
X48.35Y-40.975
X52.01Y-40.23
X52.05Y-54.78
X52.8Y-47.35
T4
X30.2Y-60.5
X32.74Y-60.5
X35.28Y-60.5
X37.82Y-60.5
X41.79Y-34.3
X42.22Y-60.5
X44.33Y-34.3
X44.76Y-60.5
X46.87Y-34.3
X47.3Y-60.5
X49.41Y-34.3
X49.84Y-60.5
T5
X26.8Y-45.6
X26.8Y-50.6
T6
X55.53Y-51.0
X55.53Y-54.0
T7
X25.0Y-35.0
X25.0Y-60.0
X55.0Y-35.0
X55.0Y-60.0
T2
G00X24.375Y-44.225
M15
G01X23.725Y-44.225
M16
G05
G00X24.375Y-51.975
M15
G01X23.725Y-51.975
M16
G05
T3
G00X28.125Y-44.375
M15
G01X27.575Y-44.375
M16
G05
G00X28.125Y-51.825
M15
G01X27.575Y-51.825
M16
G05
M30
